<?xml version="1.0" encoding="utf-8" standalone="no"?>
<!DOCTYPE svg PUBLIC "-//W3C//DTD SVG 1.1//EN"
  "http://www.w3.org/Graphics/SVG/1.1/DTD/svg11.dtd">
<!-- Created with matplotlib (https://matplotlib.org/) -->
<svg height="345.6pt" version="1.1" viewBox="0 0 460.8 345.6" width="460.8pt" xmlns="http://www.w3.org/2000/svg" xmlns:xlink="http://www.w3.org/1999/xlink">
 <defs>
  <style type="text/css">
*{stroke-linecap:butt;stroke-linejoin:round;white-space:pre;}
  </style>
 </defs>
 <g id="figure_1">
  <g id="patch_1">
   <path d="M 0 345.6 
L 460.8 345.6 
L 460.8 0 
L 0 0 
z
" style="fill:#ffffff;"/>
  </g>
  <g id="axes_1">
   <g id="patch_2">
    <path d="M 84.98 317.72 
L 375.82 317.72 
L 375.82 26.88 
L 84.98 26.88 
z
" style="fill:#ffffff;"/>
   </g>
   <g id="matplotlib.axis_1">
    <g id="xtick_1">
     <g id="line2d_1">
      <defs>
       <path d="M 0 0 
L 0 3.5 
" id="me366158cb1" style="stroke:#000000;stroke-width:0.8;"/>
      </defs>
      <g>
       <use style="stroke:#000000;stroke-width:0.8;" x="364.004624" xlink:href="#me366158cb1" y="317.72"/>
      </g>
     </g>
     <g id="text_1">
      <!-- −10 -->
      <defs>
       <path d="M 10.59375 35.5 
L 73.1875 35.5 
L 73.1875 27.203125 
L 10.59375 27.203125 
z
" id="DejaVuSans-8722"/>
       <path d="M 12.40625 8.296875 
L 28.515625 8.296875 
L 28.515625 63.921875 
L 10.984375 60.40625 
L 10.984375 69.390625 
L 28.421875 72.90625 
L 38.28125 72.90625 
L 38.28125 8.296875 
L 54.390625 8.296875 
L 54.390625 0 
L 12.40625 0 
z
" id="DejaVuSans-49"/>
       <path d="M 31.78125 66.40625 
Q 24.171875 66.40625 20.328125 58.90625 
Q 16.5 51.421875 16.5 36.375 
Q 16.5 21.390625 20.328125 13.890625 
Q 24.171875 6.390625 31.78125 6.390625 
Q 39.453125 6.390625 43.28125 13.890625 
Q 47.125 21.390625 47.125 36.375 
Q 47.125 51.421875 43.28125 58.90625 
Q 39.453125 66.40625 31.78125 66.40625 
z
M 31.78125 74.21875 
Q 44.046875 74.21875 50.515625 64.515625 
Q 56.984375 54.828125 56.984375 36.375 
Q 56.984375 17.96875 50.515625 8.265625 
Q 44.046875 -1.421875 31.78125 -1.421875 
Q 19.53125 -1.421875 13.0625 8.265625 
Q 6.59375 17.96875 6.59375 36.375 
Q 6.59375 54.828125 13.0625 64.515625 
Q 19.53125 74.21875 31.78125 74.21875 
z
" id="DejaVuSans-48"/>
      </defs>
      <g transform="translate(353.45228 332.318437)scale(0.1 -0.1)">
       <use xlink:href="#DejaVuSans-8722"/>
       <use x="83.789062" xlink:href="#DejaVuSans-49"/>
       <use x="147.412109" xlink:href="#DejaVuSans-48"/>
      </g>
     </g>
    </g>
    <g id="xtick_2">
     <g id="line2d_2">
      <g>
       <use style="stroke:#000000;stroke-width:0.8;" x="318.560875" xlink:href="#me366158cb1" y="317.72"/>
      </g>
     </g>
     <g id="text_2">
      <!-- −5 -->
      <defs>
       <path d="M 10.796875 72.90625 
L 49.515625 72.90625 
L 49.515625 64.59375 
L 19.828125 64.59375 
L 19.828125 46.734375 
Q 21.96875 47.46875 24.109375 47.828125 
Q 26.265625 48.1875 28.421875 48.1875 
Q 40.625 48.1875 47.75 41.5 
Q 54.890625 34.8125 54.890625 23.390625 
Q 54.890625 11.625 47.5625 5.09375 
Q 40.234375 -1.421875 26.90625 -1.421875 
Q 22.3125 -1.421875 17.546875 -0.640625 
Q 12.796875 0.140625 7.71875 1.703125 
L 7.71875 11.625 
Q 12.109375 9.234375 16.796875 8.0625 
Q 21.484375 6.890625 26.703125 6.890625 
Q 35.15625 6.890625 40.078125 11.328125 
Q 45.015625 15.765625 45.015625 23.390625 
Q 45.015625 31 40.078125 35.4375 
Q 35.15625 39.890625 26.703125 39.890625 
Q 22.75 39.890625 18.8125 39.015625 
Q 14.890625 38.140625 10.796875 36.28125 
z
" id="DejaVuSans-53"/>
      </defs>
      <g transform="translate(311.189781 332.318437)scale(0.1 -0.1)">
       <use xlink:href="#DejaVuSans-8722"/>
       <use x="83.789062" xlink:href="#DejaVuSans-53"/>
      </g>
     </g>
    </g>
    <g id="xtick_3">
     <g id="line2d_3">
      <g>
       <use style="stroke:#000000;stroke-width:0.8;" x="273.117126" xlink:href="#me366158cb1" y="317.72"/>
      </g>
     </g>
     <g id="text_3">
      <!-- 0 -->
      <g transform="translate(269.935876 332.318437)scale(0.1 -0.1)">
       <use xlink:href="#DejaVuSans-48"/>
      </g>
     </g>
    </g>
    <g id="xtick_4">
     <g id="line2d_4">
      <g>
       <use style="stroke:#000000;stroke-width:0.8;" x="227.673378" xlink:href="#me366158cb1" y="317.72"/>
      </g>
     </g>
     <g id="text_4">
      <!-- 5 -->
      <g transform="translate(224.492128 332.318437)scale(0.1 -0.1)">
       <use xlink:href="#DejaVuSans-53"/>
      </g>
     </g>
    </g>
    <g id="xtick_5">
     <g id="line2d_5">
      <g>
       <use style="stroke:#000000;stroke-width:0.8;" x="182.229629" xlink:href="#me366158cb1" y="317.72"/>
      </g>
     </g>
     <g id="text_5">
      <!-- 10 -->
      <g transform="translate(175.867129 332.318437)scale(0.1 -0.1)">
       <use xlink:href="#DejaVuSans-49"/>
       <use x="63.623047" xlink:href="#DejaVuSans-48"/>
      </g>
     </g>
    </g>
    <g id="xtick_6">
     <g id="line2d_6">
      <g>
       <use style="stroke:#000000;stroke-width:0.8;" x="136.78588" xlink:href="#me366158cb1" y="317.72"/>
      </g>
     </g>
     <g id="text_6">
      <!-- 15 -->
      <g transform="translate(130.42338 332.318437)scale(0.1 -0.1)">
       <use xlink:href="#DejaVuSans-49"/>
       <use x="63.623047" xlink:href="#DejaVuSans-53"/>
      </g>
     </g>
    </g>
    <g id="xtick_7">
     <g id="line2d_7">
      <g>
       <use style="stroke:#000000;stroke-width:0.8;" x="91.342132" xlink:href="#me366158cb1" y="317.72"/>
      </g>
     </g>
     <g id="text_7">
      <!-- 20 -->
      <defs>
       <path d="M 19.1875 8.296875 
L 53.609375 8.296875 
L 53.609375 0 
L 7.328125 0 
L 7.328125 8.296875 
Q 12.9375 14.109375 22.625 23.890625 
Q 32.328125 33.6875 34.8125 36.53125 
Q 39.546875 41.84375 41.421875 45.53125 
Q 43.3125 49.21875 43.3125 52.78125 
Q 43.3125 58.59375 39.234375 62.25 
Q 35.15625 65.921875 28.609375 65.921875 
Q 23.96875 65.921875 18.8125 64.3125 
Q 13.671875 62.703125 7.8125 59.421875 
L 7.8125 69.390625 
Q 13.765625 71.78125 18.9375 73 
Q 24.125 74.21875 28.421875 74.21875 
Q 39.75 74.21875 46.484375 68.546875 
Q 53.21875 62.890625 53.21875 53.421875 
Q 53.21875 48.921875 51.53125 44.890625 
Q 49.859375 40.875 45.40625 35.40625 
Q 44.1875 33.984375 37.640625 27.21875 
Q 31.109375 20.453125 19.1875 8.296875 
z
" id="DejaVuSans-50"/>
      </defs>
      <g transform="translate(84.979632 332.318437)scale(0.1 -0.1)">
       <use xlink:href="#DejaVuSans-50"/>
       <use x="63.623047" xlink:href="#DejaVuSans-48"/>
      </g>
     </g>
    </g>
   </g>
   <g id="matplotlib.axis_2">
    <g id="ytick_1">
     <g id="line2d_8">
      <defs>
       <path d="M 0 0 
L -3.5 0 
" id="mf082e61b34" style="stroke:#000000;stroke-width:0.8;"/>
      </defs>
      <g>
       <use style="stroke:#000000;stroke-width:0.8;" x="84.98" xlink:href="#mf082e61b34" y="304.5"/>
      </g>
     </g>
     <g id="text_8">
      <!-- −1.00 -->
      <defs>
       <path d="M 10.6875 12.40625 
L 21 12.40625 
L 21 0 
L 10.6875 0 
z
" id="DejaVuSans-46"/>
      </defs>
      <g transform="translate(47.334688 308.299219)scale(0.1 -0.1)">
       <use xlink:href="#DejaVuSans-8722"/>
       <use x="83.789062" xlink:href="#DejaVuSans-49"/>
       <use x="147.412109" xlink:href="#DejaVuSans-46"/>
       <use x="179.199219" xlink:href="#DejaVuSans-48"/>
       <use x="242.822266" xlink:href="#DejaVuSans-48"/>
      </g>
     </g>
    </g>
    <g id="ytick_2">
     <g id="line2d_9">
      <g>
       <use style="stroke:#000000;stroke-width:0.8;" x="84.98" xlink:href="#mf082e61b34" y="268.553387"/>
      </g>
     </g>
     <g id="text_9">
      <!-- −0.75 -->
      <defs>
       <path d="M 8.203125 72.90625 
L 55.078125 72.90625 
L 55.078125 68.703125 
L 28.609375 0 
L 18.3125 0 
L 43.21875 64.59375 
L 8.203125 64.59375 
z
" id="DejaVuSans-55"/>
      </defs>
      <g transform="translate(47.334688 272.352605)scale(0.1 -0.1)">
       <use xlink:href="#DejaVuSans-8722"/>
       <use x="83.789062" xlink:href="#DejaVuSans-48"/>
       <use x="147.412109" xlink:href="#DejaVuSans-46"/>
       <use x="179.199219" xlink:href="#DejaVuSans-55"/>
       <use x="242.822266" xlink:href="#DejaVuSans-53"/>
      </g>
     </g>
    </g>
    <g id="ytick_3">
     <g id="line2d_10">
      <g>
       <use style="stroke:#000000;stroke-width:0.8;" x="84.98" xlink:href="#mf082e61b34" y="232.606773"/>
      </g>
     </g>
     <g id="text_10">
      <!-- −0.50 -->
      <g transform="translate(47.334688 236.405992)scale(0.1 -0.1)">
       <use xlink:href="#DejaVuSans-8722"/>
       <use x="83.789062" xlink:href="#DejaVuSans-48"/>
       <use x="147.412109" xlink:href="#DejaVuSans-46"/>
       <use x="179.199219" xlink:href="#DejaVuSans-53"/>
       <use x="242.822266" xlink:href="#DejaVuSans-48"/>
      </g>
     </g>
    </g>
    <g id="ytick_4">
     <g id="line2d_11">
      <g>
       <use style="stroke:#000000;stroke-width:0.8;" x="84.98" xlink:href="#mf082e61b34" y="196.66016"/>
      </g>
     </g>
     <g id="text_11">
      <!-- −0.25 -->
      <g transform="translate(47.334688 200.459379)scale(0.1 -0.1)">
       <use xlink:href="#DejaVuSans-8722"/>
       <use x="83.789062" xlink:href="#DejaVuSans-48"/>
       <use x="147.412109" xlink:href="#DejaVuSans-46"/>
       <use x="179.199219" xlink:href="#DejaVuSans-50"/>
       <use x="242.822266" xlink:href="#DejaVuSans-53"/>
      </g>
     </g>
    </g>
    <g id="ytick_5">
     <g id="line2d_12">
      <g>
       <use style="stroke:#000000;stroke-width:0.8;" x="84.98" xlink:href="#mf082e61b34" y="160.713547"/>
      </g>
     </g>
     <g id="text_12">
      <!-- 0.00 -->
      <g transform="translate(55.714375 164.512765)scale(0.1 -0.1)">
       <use xlink:href="#DejaVuSans-48"/>
       <use x="63.623047" xlink:href="#DejaVuSans-46"/>
       <use x="95.410156" xlink:href="#DejaVuSans-48"/>
       <use x="159.033203" xlink:href="#DejaVuSans-48"/>
      </g>
     </g>
    </g>
    <g id="ytick_6">
     <g id="line2d_13">
      <g>
       <use style="stroke:#000000;stroke-width:0.8;" x="84.98" xlink:href="#mf082e61b34" y="124.766933"/>
      </g>
     </g>
     <g id="text_13">
      <!-- 0.25 -->
      <g transform="translate(55.714375 128.566152)scale(0.1 -0.1)">
       <use xlink:href="#DejaVuSans-48"/>
       <use x="63.623047" xlink:href="#DejaVuSans-46"/>
       <use x="95.410156" xlink:href="#DejaVuSans-50"/>
       <use x="159.033203" xlink:href="#DejaVuSans-53"/>
      </g>
     </g>
    </g>
    <g id="ytick_7">
     <g id="line2d_14">
      <g>
       <use style="stroke:#000000;stroke-width:0.8;" x="84.98" xlink:href="#mf082e61b34" y="88.82032"/>
      </g>
     </g>
     <g id="text_14">
      <!-- 0.50 -->
      <g transform="translate(55.714375 92.619539)scale(0.1 -0.1)">
       <use xlink:href="#DejaVuSans-48"/>
       <use x="63.623047" xlink:href="#DejaVuSans-46"/>
       <use x="95.410156" xlink:href="#DejaVuSans-53"/>
       <use x="159.033203" xlink:href="#DejaVuSans-48"/>
      </g>
     </g>
    </g>
    <g id="ytick_8">
     <g id="line2d_15">
      <g>
       <use style="stroke:#000000;stroke-width:0.8;" x="84.98" xlink:href="#mf082e61b34" y="52.873707"/>
      </g>
     </g>
     <g id="text_15">
      <!-- 0.75 -->
      <g transform="translate(55.714375 56.672926)scale(0.1 -0.1)">
       <use xlink:href="#DejaVuSans-48"/>
       <use x="63.623047" xlink:href="#DejaVuSans-46"/>
       <use x="95.410156" xlink:href="#DejaVuSans-55"/>
       <use x="159.033203" xlink:href="#DejaVuSans-53"/>
      </g>
     </g>
    </g>
   </g>
   <g id="line2d_16">
    <path clip-path="url(#p5e90cab242)" d="M 84.98 161.573401 
L 112.685823 163.18872 
L 131.582604 164.508709 
L 145.93279 165.729249 
L 157.583446 166.930227 
L 167.102876 168.11898 
L 174.633172 169.252777 
L 181.595144 170.512966 
L 187.846719 171.884681 
L 192.819556 173.198333 
L 197.508231 174.684741 
L 202.623149 176.68455 
L 204.186041 177.417784 
L 204.896446 177.733463 
L 205.606851 178.122306 
L 206.175176 178.396651 
L 207.738067 179.259189 
L 208.306391 179.624929 
L 210.153445 180.795997 
L 214.2738 183.962239 
L 214.557962 184.259681 
L 214.700043 184.338993 
L 214.984205 184.689091 
L 215.126286 184.746178 
L 215.836692 185.559493 
L 216.120854 185.747578 
L 216.405016 186.129221 
L 216.547097 186.197553 
L 216.831259 186.628077 
L 216.97334 186.680909 
L 217.825827 187.746905 
L 217.967908 187.829448 
L 218.25207 188.295591 
L 218.394151 188.342051 
L 218.820394 188.866277 
L 219.957042 190.275173 
L 220.099123 190.546056 
L 220.241204 190.573939 
L 222.514501 194.102141 
L 222.656582 194.067763 
L 222.940745 194.774713 
L 223.082826 194.6717 
L 223.366988 195.484284 
L 223.509069 195.395373 
L 223.65115 195.884371 
L 223.793231 195.57127 
L 223.935312 196.364346 
L 224.077393 195.338845 
L 224.219474 192.016563 
L 224.361555 195.131835 
L 224.503636 192.993344 
L 224.645717 181.922285 
L 224.787798 147.114494 
L 224.929879 40.1 
L 225.214041 304.5 
L 225.356123 282.248311 
L 225.498204 219.142143 
L 225.640285 212.40085 
L 225.782366 218.443922 
L 225.924447 213.77243 
L 226.208609 216.605219 
L 226.35069 214.75613 
L 226.776933 214.011059 
L 226.919014 214.095571 
L 227.061095 213.730658 
L 227.345257 214.539947 
L 227.487338 214.439516 
L 228.623991 217.961814 
L 229.476477 221.712259 
L 230.044802 224.988311 
L 230.897288 229.330019 
L 231.465612 234.483309 
L 231.607693 234.433301 
L 232.176018 230.478214 
L 232.318099 230.390925 
L 232.46018 230.094678 
L 232.886423 227.756333 
L 233.170585 222.824235 
L 233.738909 211.805049 
L 234.165152 205.904601 
L 234.449314 204.658962 
L 234.733477 204.234087 
L 235.443882 201.284549 
L 235.585963 201.560629 
L 236.012206 203.620995 
L 236.722611 210.176483 
L 237.433017 215.896474 
L 237.575098 216.116003 
L 237.717179 215.743369 
L 238.001341 213.84251 
L 238.569665 208.874802 
L 238.711746 208.479577 
L 238.853827 208.670382 
L 239.422151 210.810868 
L 239.564232 209.452362 
L 240.132557 199.44918 
L 240.274638 199.308532 
L 240.5588 200.610521 
L 241.411286 207.217015 
L 242.121691 213.481266 
L 242.97418 223.384778 
L 244.110828 239.524846 
L 244.394991 240.258973 
L 244.537072 240.967209 
L 244.679153 241.074784 
L 244.821234 239.475053 
L 245.247477 231.40531 
L 245.531639 227.730005 
L 246.099963 212.211737 
L 246.668287 207.155095 
L 246.810368 207.162362 
L 247.094531 209.021972 
L 247.236612 210.217942 
L 247.378693 210.45477 
L 247.662855 207.139214 
L 247.947017 201.534083 
L 248.37326 184.645927 
L 249.225746 151.088426 
L 249.65199 141.98425 
L 250.078233 137.154968 
L 250.504476 135.143409 
L 250.788638 134.726695 
L 250.930719 134.712368 
L 251.214881 134.97846 
L 251.783208 135.932553 
L 252.493613 136.952891 
L 252.919856 137.179253 
L 253.204018 137.123655 
L 253.48818 136.878129 
L 253.914423 136.020033 
L 254.340667 134.461295 
L 255.051072 130.673021 
L 255.761477 127.212866 
L 256.18772 125.922275 
L 256.613964 125.191105 
L 257.324369 124.587321 
L 257.750612 124.08221 
L 258.176856 123.106233 
L 258.603099 121.536271 
L 260.450153 113.411035 
L 260.876396 112.776667 
L 261.160558 112.685346 
L 261.444721 112.816009 
L 261.870964 113.335728 
L 262.439288 114.432945 
L 263.575937 117.228878 
L 265.849234 122.796861 
L 267.412127 126.025621 
L 268.975019 128.772342 
L 270.679992 131.316812 
L 272.384965 133.485864 
L 274.232019 135.501203 
L 276.363235 137.486778 
L 278.636533 139.290022 
L 281.193992 141.017342 
L 283.893533 142.570732 
L 286.877236 144.037706 
L 290.287183 145.4624 
L 294.265452 146.864403 
L 298.527886 148.127827 
L 303.500723 149.364539 
L 309.183967 150.540937 
L 315.577615 151.637991 
L 323.107915 152.700965 
L 331.916941 153.711483 
L 342.146781 154.653988 
L 353.939509 155.514762 
L 367.863461 156.306583 
L 375.82 156.669545 
L 375.82 156.669545 
" style="fill:none;stroke:#ff0000;stroke-linecap:square;stroke-width:1.5;"/>
   </g>
   <g id="line2d_17">
    <path clip-path="url(#p5e90cab242)" d="M 84.98 162.369799 
L 99.756447 164.021732 
L 118.795309 166.285528 
L 131.156361 167.989149 
L 141.670359 169.654169 
L 150.763555 171.311921 
L 158.578013 172.956415 
L 165.397904 174.613576 
L 171.365308 176.284261 
L 177.616875 178.280328 
L 182.447631 180.090281 
L 186.710071 181.916415 
L 190.546259 183.793079 
L 194.098286 185.780164 
L 197.224069 187.777405 
L 200.06569 189.846165 
L 202.76523 192.085038 
L 205.180608 194.368725 
L 207.453905 196.819106 
L 209.585121 199.444441 
L 211.57426 202.253001 
L 213.421314 205.252432 
L 215.126286 208.449075 
L 216.689178 211.850129 
L 218.536232 216.491362 
L 219.67288 219.596431 
L 220.809529 223.480046 
L 222.088258 228.654167 
L 223.224907 234.142801 
L 224.361555 240.692281 
L 228.481906 267.204775 
L 230.186883 282.475819 
L 230.755207 290.502389 
L 231.039369 293.800016 
L 231.18145 294.152857 
L 231.465612 292.280271 
L 231.749774 290.810355 
L 231.891855 290.386295 
L 232.033936 289.144075 
L 232.602261 279.686259 
L 233.454747 242.362383 
L 233.738909 234.962563 
L 234.023071 232.709592 
L 234.449314 231.128124 
L 234.875558 229.222654 
L 235.017639 229.238424 
L 235.15972 229.769836 
L 235.443882 232.283003 
L 235.870125 239.032103 
L 237.148855 264.301589 
L 237.290936 263.772208 
L 237.575098 257.069319 
L 238.143422 237.739242 
L 238.285503 236.251971 
L 238.427584 236.236861 
L 238.995908 240.131361 
L 239.137989 238.838285 
L 239.706314 227.041434 
L 239.848395 226.558573 
L 239.990476 227.167641 
L 240.416719 232.110859 
L 241.553367 250.022451 
L 242.263775 264.508255 
L 242.97418 283.76083 
L 243.542504 300.725776 
L 243.684585 302.490212 
L 243.826666 302.414159 
L 243.968747 302.185802 
L 244.252909 304.5 
L 244.394991 301.388606 
L 244.821234 281.015005 
L 245.105396 275.384359 
L 245.815801 238.600192 
L 246.242044 231.291535 
L 246.384125 231.571425 
L 246.526206 233.312052 
L 246.95245 242.021395 
L 247.094531 239.790441 
L 247.520774 224.8817 
L 247.804936 203.182378 
L 248.657422 127.068053 
L 249.083665 104.689814 
L 249.509909 94.076698 
L 249.794071 91.143191 
L 250.078233 90.317627 
L 250.220314 90.380379 
L 250.504476 91.312404 
L 251.214881 95.599031 
L 251.925289 99.268816 
L 252.351532 100.523754 
L 252.635694 100.941096 
L 252.919856 101.026799 
L 253.204018 100.736659 
L 253.48818 99.968413 
L 253.914423 97.681469 
L 254.482748 92.760191 
L 255.193153 86.766455 
L 255.619396 84.648073 
L 256.045639 83.631373 
L 256.329801 83.390272 
L 257.182288 83.141715 
L 257.46645 82.590265 
L 257.750612 81.524115 
L 258.176856 78.86011 
L 259.029343 71.125807 
L 259.739748 65.676013 
L 260.165991 64.020326 
L 260.450153 63.654647 
L 260.592234 63.672833 
L 260.876396 64.05759 
L 261.302639 65.328468 
L 262.013045 68.592328 
L 265.991315 89.106021 
L 267.412127 94.754372 
L 268.975019 100.027412 
L 270.537911 104.515425 
L 272.242884 108.706852 
L 273.947857 112.315994 
L 275.794911 115.705101 
L 277.784046 118.870745 
L 279.773182 121.632743 
L 281.904397 124.230636 
L 284.177695 126.665881 
L 286.735155 129.06921 
L 289.434695 131.291636 
L 292.276317 133.34881 
L 295.402101 135.338071 
L 298.812048 137.24211 
L 302.506156 139.0504 
L 306.626508 140.813456 
L 311.173102 142.507607 
L 316.145939 144.115934 
L 321.545024 145.627776 
L 327.512428 147.067302 
L 334.190238 148.447864 
L 341.578457 149.744557 
L 349.961239 150.984256 
L 359.622751 152.183333 
L 370.989244 153.36328 
L 375.82 153.802287 
L 375.82 153.802287 
" style="fill:none;stroke:#1f77b4;stroke-linecap:square;stroke-width:1.5;"/>
   </g>
   <g id="patch_3">
    <path d="M 84.98 317.72 
L 84.98 26.88 
" style="fill:none;stroke:#000000;stroke-linecap:square;stroke-linejoin:miter;stroke-width:0.8;"/>
   </g>
   <g id="patch_4">
    <path d="M 375.82 317.72 
L 375.82 26.88 
" style="fill:none;stroke:#000000;stroke-linecap:square;stroke-linejoin:miter;stroke-width:0.8;"/>
   </g>
   <g id="patch_5">
    <path d="M 84.98 317.72 
L 375.82 317.72 
" style="fill:none;stroke:#000000;stroke-linecap:square;stroke-linejoin:miter;stroke-width:0.8;"/>
   </g>
   <g id="patch_6">
    <path d="M 84.98 26.88 
L 375.82 26.88 
" style="fill:none;stroke:#000000;stroke-linecap:square;stroke-linejoin:miter;stroke-width:0.8;"/>
   </g>
   <g id="text_16">
    <!-- Original Signal vs Signal from Sampled Parameters -->
    <defs>
     <path d="M 39.40625 66.21875 
Q 28.65625 66.21875 22.328125 58.203125 
Q 16.015625 50.203125 16.015625 36.375 
Q 16.015625 22.609375 22.328125 14.59375 
Q 28.65625 6.59375 39.40625 6.59375 
Q 50.140625 6.59375 56.421875 14.59375 
Q 62.703125 22.609375 62.703125 36.375 
Q 62.703125 50.203125 56.421875 58.203125 
Q 50.140625 66.21875 39.40625 66.21875 
z
M 39.40625 74.21875 
Q 54.734375 74.21875 63.90625 63.9375 
Q 73.09375 53.65625 73.09375 36.375 
Q 73.09375 19.140625 63.90625 8.859375 
Q 54.734375 -1.421875 39.40625 -1.421875 
Q 24.03125 -1.421875 14.8125 8.828125 
Q 5.609375 19.09375 5.609375 36.375 
Q 5.609375 53.65625 14.8125 63.9375 
Q 24.03125 74.21875 39.40625 74.21875 
z
" id="DejaVuSans-79"/>
     <path d="M 41.109375 46.296875 
Q 39.59375 47.171875 37.8125 47.578125 
Q 36.03125 48 33.890625 48 
Q 26.265625 48 22.1875 43.046875 
Q 18.109375 38.09375 18.109375 28.8125 
L 18.109375 0 
L 9.078125 0 
L 9.078125 54.6875 
L 18.109375 54.6875 
L 18.109375 46.1875 
Q 20.953125 51.171875 25.484375 53.578125 
Q 30.03125 56 36.53125 56 
Q 37.453125 56 38.578125 55.875 
Q 39.703125 55.765625 41.0625 55.515625 
z
" id="DejaVuSans-114"/>
     <path d="M 9.421875 54.6875 
L 18.40625 54.6875 
L 18.40625 0 
L 9.421875 0 
z
M 9.421875 75.984375 
L 18.40625 75.984375 
L 18.40625 64.59375 
L 9.421875 64.59375 
z
" id="DejaVuSans-105"/>
     <path d="M 45.40625 27.984375 
Q 45.40625 37.75 41.375 43.109375 
Q 37.359375 48.484375 30.078125 48.484375 
Q 22.859375 48.484375 18.828125 43.109375 
Q 14.796875 37.75 14.796875 27.984375 
Q 14.796875 18.265625 18.828125 12.890625 
Q 22.859375 7.515625 30.078125 7.515625 
Q 37.359375 7.515625 41.375 12.890625 
Q 45.40625 18.265625 45.40625 27.984375 
z
M 54.390625 6.78125 
Q 54.390625 -7.171875 48.1875 -13.984375 
Q 42 -20.796875 29.203125 -20.796875 
Q 24.46875 -20.796875 20.265625 -20.09375 
Q 16.0625 -19.390625 12.109375 -17.921875 
L 12.109375 -9.1875 
Q 16.0625 -11.328125 19.921875 -12.34375 
Q 23.78125 -13.375 27.78125 -13.375 
Q 36.625 -13.375 41.015625 -8.765625 
Q 45.40625 -4.15625 45.40625 5.171875 
L 45.40625 9.625 
Q 42.625 4.78125 38.28125 2.390625 
Q 33.9375 0 27.875 0 
Q 17.828125 0 11.671875 7.65625 
Q 5.515625 15.328125 5.515625 27.984375 
Q 5.515625 40.671875 11.671875 48.328125 
Q 17.828125 56 27.875 56 
Q 33.9375 56 38.28125 53.609375 
Q 42.625 51.21875 45.40625 46.390625 
L 45.40625 54.6875 
L 54.390625 54.6875 
z
" id="DejaVuSans-103"/>
     <path d="M 54.890625 33.015625 
L 54.890625 0 
L 45.90625 0 
L 45.90625 32.71875 
Q 45.90625 40.484375 42.875 44.328125 
Q 39.84375 48.1875 33.796875 48.1875 
Q 26.515625 48.1875 22.3125 43.546875 
Q 18.109375 38.921875 18.109375 30.90625 
L 18.109375 0 
L 9.078125 0 
L 9.078125 54.6875 
L 18.109375 54.6875 
L 18.109375 46.1875 
Q 21.34375 51.125 25.703125 53.5625 
Q 30.078125 56 35.796875 56 
Q 45.21875 56 50.046875 50.171875 
Q 54.890625 44.34375 54.890625 33.015625 
z
" id="DejaVuSans-110"/>
     <path d="M 34.28125 27.484375 
Q 23.390625 27.484375 19.1875 25 
Q 14.984375 22.515625 14.984375 16.5 
Q 14.984375 11.71875 18.140625 8.90625 
Q 21.296875 6.109375 26.703125 6.109375 
Q 34.1875 6.109375 38.703125 11.40625 
Q 43.21875 16.703125 43.21875 25.484375 
L 43.21875 27.484375 
z
M 52.203125 31.203125 
L 52.203125 0 
L 43.21875 0 
L 43.21875 8.296875 
Q 40.140625 3.328125 35.546875 0.953125 
Q 30.953125 -1.421875 24.3125 -1.421875 
Q 15.921875 -1.421875 10.953125 3.296875 
Q 6 8.015625 6 15.921875 
Q 6 25.140625 12.171875 29.828125 
Q 18.359375 34.515625 30.609375 34.515625 
L 43.21875 34.515625 
L 43.21875 35.40625 
Q 43.21875 41.609375 39.140625 45 
Q 35.0625 48.390625 27.6875 48.390625 
Q 23 48.390625 18.546875 47.265625 
Q 14.109375 46.140625 10.015625 43.890625 
L 10.015625 52.203125 
Q 14.9375 54.109375 19.578125 55.046875 
Q 24.21875 56 28.609375 56 
Q 40.484375 56 46.34375 49.84375 
Q 52.203125 43.703125 52.203125 31.203125 
z
" id="DejaVuSans-97"/>
     <path d="M 9.421875 75.984375 
L 18.40625 75.984375 
L 18.40625 0 
L 9.421875 0 
z
" id="DejaVuSans-108"/>
     <path id="DejaVuSans-32"/>
     <path d="M 53.515625 70.515625 
L 53.515625 60.890625 
Q 47.90625 63.578125 42.921875 64.890625 
Q 37.9375 66.21875 33.296875 66.21875 
Q 25.25 66.21875 20.875 63.09375 
Q 16.5 59.96875 16.5 54.203125 
Q 16.5 49.359375 19.40625 46.890625 
Q 22.3125 44.4375 30.421875 42.921875 
L 36.375 41.703125 
Q 47.40625 39.59375 52.65625 34.296875 
Q 57.90625 29 57.90625 20.125 
Q 57.90625 9.515625 50.796875 4.046875 
Q 43.703125 -1.421875 29.984375 -1.421875 
Q 24.8125 -1.421875 18.96875 -0.25 
Q 13.140625 0.921875 6.890625 3.21875 
L 6.890625 13.375 
Q 12.890625 10.015625 18.65625 8.296875 
Q 24.421875 6.59375 29.984375 6.59375 
Q 38.421875 6.59375 43.015625 9.90625 
Q 47.609375 13.234375 47.609375 19.390625 
Q 47.609375 24.75 44.3125 27.78125 
Q 41.015625 30.8125 33.5 32.328125 
L 27.484375 33.5 
Q 16.453125 35.6875 11.515625 40.375 
Q 6.59375 45.0625 6.59375 53.421875 
Q 6.59375 63.09375 13.40625 68.65625 
Q 20.21875 74.21875 32.171875 74.21875 
Q 37.3125 74.21875 42.625 73.28125 
Q 47.953125 72.359375 53.515625 70.515625 
z
" id="DejaVuSans-83"/>
     <path d="M 2.984375 54.6875 
L 12.5 54.6875 
L 29.59375 8.796875 
L 46.6875 54.6875 
L 56.203125 54.6875 
L 35.6875 0 
L 23.484375 0 
z
" id="DejaVuSans-118"/>
     <path d="M 44.28125 53.078125 
L 44.28125 44.578125 
Q 40.484375 46.53125 36.375 47.5 
Q 32.28125 48.484375 27.875 48.484375 
Q 21.1875 48.484375 17.84375 46.4375 
Q 14.5 44.390625 14.5 40.28125 
Q 14.5 37.15625 16.890625 35.375 
Q 19.28125 33.59375 26.515625 31.984375 
L 29.59375 31.296875 
Q 39.15625 29.25 43.1875 25.515625 
Q 47.21875 21.78125 47.21875 15.09375 
Q 47.21875 7.46875 41.1875 3.015625 
Q 35.15625 -1.421875 24.609375 -1.421875 
Q 20.21875 -1.421875 15.453125 -0.5625 
Q 10.6875 0.296875 5.421875 2 
L 5.421875 11.28125 
Q 10.40625 8.6875 15.234375 7.390625 
Q 20.0625 6.109375 24.8125 6.109375 
Q 31.15625 6.109375 34.5625 8.28125 
Q 37.984375 10.453125 37.984375 14.40625 
Q 37.984375 18.0625 35.515625 20.015625 
Q 33.0625 21.96875 24.703125 23.78125 
L 21.578125 24.515625 
Q 13.234375 26.265625 9.515625 29.90625 
Q 5.8125 33.546875 5.8125 39.890625 
Q 5.8125 47.609375 11.28125 51.796875 
Q 16.75 56 26.8125 56 
Q 31.78125 56 36.171875 55.265625 
Q 40.578125 54.546875 44.28125 53.078125 
z
" id="DejaVuSans-115"/>
     <path d="M 37.109375 75.984375 
L 37.109375 68.5 
L 28.515625 68.5 
Q 23.6875 68.5 21.796875 66.546875 
Q 19.921875 64.59375 19.921875 59.515625 
L 19.921875 54.6875 
L 34.71875 54.6875 
L 34.71875 47.703125 
L 19.921875 47.703125 
L 19.921875 0 
L 10.890625 0 
L 10.890625 47.703125 
L 2.296875 47.703125 
L 2.296875 54.6875 
L 10.890625 54.6875 
L 10.890625 58.5 
Q 10.890625 67.625 15.140625 71.796875 
Q 19.390625 75.984375 28.609375 75.984375 
z
" id="DejaVuSans-102"/>
     <path d="M 30.609375 48.390625 
Q 23.390625 48.390625 19.1875 42.75 
Q 14.984375 37.109375 14.984375 27.296875 
Q 14.984375 17.484375 19.15625 11.84375 
Q 23.34375 6.203125 30.609375 6.203125 
Q 37.796875 6.203125 41.984375 11.859375 
Q 46.1875 17.53125 46.1875 27.296875 
Q 46.1875 37.015625 41.984375 42.703125 
Q 37.796875 48.390625 30.609375 48.390625 
z
M 30.609375 56 
Q 42.328125 56 49.015625 48.375 
Q 55.71875 40.765625 55.71875 27.296875 
Q 55.71875 13.875 49.015625 6.21875 
Q 42.328125 -1.421875 30.609375 -1.421875 
Q 18.84375 -1.421875 12.171875 6.21875 
Q 5.515625 13.875 5.515625 27.296875 
Q 5.515625 40.765625 12.171875 48.375 
Q 18.84375 56 30.609375 56 
z
" id="DejaVuSans-111"/>
     <path d="M 52 44.1875 
Q 55.375 50.25 60.0625 53.125 
Q 64.75 56 71.09375 56 
Q 79.640625 56 84.28125 50.015625 
Q 88.921875 44.046875 88.921875 33.015625 
L 88.921875 0 
L 79.890625 0 
L 79.890625 32.71875 
Q 79.890625 40.578125 77.09375 44.375 
Q 74.3125 48.1875 68.609375 48.1875 
Q 61.625 48.1875 57.5625 43.546875 
Q 53.515625 38.921875 53.515625 30.90625 
L 53.515625 0 
L 44.484375 0 
L 44.484375 32.71875 
Q 44.484375 40.625 41.703125 44.40625 
Q 38.921875 48.1875 33.109375 48.1875 
Q 26.21875 48.1875 22.15625 43.53125 
Q 18.109375 38.875 18.109375 30.90625 
L 18.109375 0 
L 9.078125 0 
L 9.078125 54.6875 
L 18.109375 54.6875 
L 18.109375 46.1875 
Q 21.1875 51.21875 25.484375 53.609375 
Q 29.78125 56 35.6875 56 
Q 41.65625 56 45.828125 52.96875 
Q 50 49.953125 52 44.1875 
z
" id="DejaVuSans-109"/>
     <path d="M 18.109375 8.203125 
L 18.109375 -20.796875 
L 9.078125 -20.796875 
L 9.078125 54.6875 
L 18.109375 54.6875 
L 18.109375 46.390625 
Q 20.953125 51.265625 25.265625 53.625 
Q 29.59375 56 35.59375 56 
Q 45.5625 56 51.78125 48.09375 
Q 58.015625 40.1875 58.015625 27.296875 
Q 58.015625 14.40625 51.78125 6.484375 
Q 45.5625 -1.421875 35.59375 -1.421875 
Q 29.59375 -1.421875 25.265625 0.953125 
Q 20.953125 3.328125 18.109375 8.203125 
z
M 48.6875 27.296875 
Q 48.6875 37.203125 44.609375 42.84375 
Q 40.53125 48.484375 33.40625 48.484375 
Q 26.265625 48.484375 22.1875 42.84375 
Q 18.109375 37.203125 18.109375 27.296875 
Q 18.109375 17.390625 22.1875 11.75 
Q 26.265625 6.109375 33.40625 6.109375 
Q 40.53125 6.109375 44.609375 11.75 
Q 48.6875 17.390625 48.6875 27.296875 
z
" id="DejaVuSans-112"/>
     <path d="M 56.203125 29.59375 
L 56.203125 25.203125 
L 14.890625 25.203125 
Q 15.484375 15.921875 20.484375 11.0625 
Q 25.484375 6.203125 34.421875 6.203125 
Q 39.59375 6.203125 44.453125 7.46875 
Q 49.3125 8.734375 54.109375 11.28125 
L 54.109375 2.78125 
Q 49.265625 0.734375 44.1875 -0.34375 
Q 39.109375 -1.421875 33.890625 -1.421875 
Q 20.796875 -1.421875 13.15625 6.1875 
Q 5.515625 13.8125 5.515625 26.8125 
Q 5.515625 40.234375 12.765625 48.109375 
Q 20.015625 56 32.328125 56 
Q 43.359375 56 49.78125 48.890625 
Q 56.203125 41.796875 56.203125 29.59375 
z
M 47.21875 32.234375 
Q 47.125 39.59375 43.09375 43.984375 
Q 39.0625 48.390625 32.421875 48.390625 
Q 24.90625 48.390625 20.390625 44.140625 
Q 15.875 39.890625 15.1875 32.171875 
z
" id="DejaVuSans-101"/>
     <path d="M 45.40625 46.390625 
L 45.40625 75.984375 
L 54.390625 75.984375 
L 54.390625 0 
L 45.40625 0 
L 45.40625 8.203125 
Q 42.578125 3.328125 38.25 0.953125 
Q 33.9375 -1.421875 27.875 -1.421875 
Q 17.96875 -1.421875 11.734375 6.484375 
Q 5.515625 14.40625 5.515625 27.296875 
Q 5.515625 40.1875 11.734375 48.09375 
Q 17.96875 56 27.875 56 
Q 33.9375 56 38.25 53.625 
Q 42.578125 51.265625 45.40625 46.390625 
z
M 14.796875 27.296875 
Q 14.796875 17.390625 18.875 11.75 
Q 22.953125 6.109375 30.078125 6.109375 
Q 37.203125 6.109375 41.296875 11.75 
Q 45.40625 17.390625 45.40625 27.296875 
Q 45.40625 37.203125 41.296875 42.84375 
Q 37.203125 48.484375 30.078125 48.484375 
Q 22.953125 48.484375 18.875 42.84375 
Q 14.796875 37.203125 14.796875 27.296875 
z
" id="DejaVuSans-100"/>
     <path d="M 19.671875 64.796875 
L 19.671875 37.40625 
L 32.078125 37.40625 
Q 38.96875 37.40625 42.71875 40.96875 
Q 46.484375 44.53125 46.484375 51.125 
Q 46.484375 57.671875 42.71875 61.234375 
Q 38.96875 64.796875 32.078125 64.796875 
z
M 9.8125 72.90625 
L 32.078125 72.90625 
Q 44.34375 72.90625 50.609375 67.359375 
Q 56.890625 61.8125 56.890625 51.125 
Q 56.890625 40.328125 50.609375 34.8125 
Q 44.34375 29.296875 32.078125 29.296875 
L 19.671875 29.296875 
L 19.671875 0 
L 9.8125 0 
z
" id="DejaVuSans-80"/>
     <path d="M 18.3125 70.21875 
L 18.3125 54.6875 
L 36.8125 54.6875 
L 36.8125 47.703125 
L 18.3125 47.703125 
L 18.3125 18.015625 
Q 18.3125 11.328125 20.140625 9.421875 
Q 21.96875 7.515625 27.59375 7.515625 
L 36.8125 7.515625 
L 36.8125 0 
L 27.59375 0 
Q 17.1875 0 13.234375 3.875 
Q 9.28125 7.765625 9.28125 18.015625 
L 9.28125 47.703125 
L 2.6875 47.703125 
L 2.6875 54.6875 
L 9.28125 54.6875 
L 9.28125 70.21875 
z
" id="DejaVuSans-116"/>
    </defs>
    <g transform="translate(76.934063 20.88)scale(0.12 -0.12)">
     <use xlink:href="#DejaVuSans-79"/>
     <use x="78.710938" xlink:href="#DejaVuSans-114"/>
     <use x="119.824219" xlink:href="#DejaVuSans-105"/>
     <use x="147.607422" xlink:href="#DejaVuSans-103"/>
     <use x="211.083984" xlink:href="#DejaVuSans-105"/>
     <use x="238.867188" xlink:href="#DejaVuSans-110"/>
     <use x="302.246094" xlink:href="#DejaVuSans-97"/>
     <use x="363.525391" xlink:href="#DejaVuSans-108"/>
     <use x="391.308594" xlink:href="#DejaVuSans-32"/>
     <use x="423.095703" xlink:href="#DejaVuSans-83"/>
     <use x="486.572266" xlink:href="#DejaVuSans-105"/>
     <use x="514.355469" xlink:href="#DejaVuSans-103"/>
     <use x="577.832031" xlink:href="#DejaVuSans-110"/>
     <use x="641.210938" xlink:href="#DejaVuSans-97"/>
     <use x="702.490234" xlink:href="#DejaVuSans-108"/>
     <use x="730.273438" xlink:href="#DejaVuSans-32"/>
     <use x="762.060547" xlink:href="#DejaVuSans-118"/>
     <use x="821.240234" xlink:href="#DejaVuSans-115"/>
     <use x="873.339844" xlink:href="#DejaVuSans-32"/>
     <use x="905.126953" xlink:href="#DejaVuSans-83"/>
     <use x="968.603516" xlink:href="#DejaVuSans-105"/>
     <use x="996.386719" xlink:href="#DejaVuSans-103"/>
     <use x="1059.863281" xlink:href="#DejaVuSans-110"/>
     <use x="1123.242188" xlink:href="#DejaVuSans-97"/>
     <use x="1184.521484" xlink:href="#DejaVuSans-108"/>
     <use x="1212.304688" xlink:href="#DejaVuSans-32"/>
     <use x="1244.091797" xlink:href="#DejaVuSans-102"/>
     <use x="1279.296875" xlink:href="#DejaVuSans-114"/>
     <use x="1320.378906" xlink:href="#DejaVuSans-111"/>
     <use x="1381.560547" xlink:href="#DejaVuSans-109"/>
     <use x="1478.972656" xlink:href="#DejaVuSans-32"/>
     <use x="1510.759766" xlink:href="#DejaVuSans-83"/>
     <use x="1574.236328" xlink:href="#DejaVuSans-97"/>
     <use x="1635.515625" xlink:href="#DejaVuSans-109"/>
     <use x="1732.927734" xlink:href="#DejaVuSans-112"/>
     <use x="1796.404297" xlink:href="#DejaVuSans-108"/>
     <use x="1824.1875" xlink:href="#DejaVuSans-101"/>
     <use x="1885.710938" xlink:href="#DejaVuSans-100"/>
     <use x="1949.1875" xlink:href="#DejaVuSans-32"/>
     <use x="1980.974609" xlink:href="#DejaVuSans-80"/>
     <use x="2041.214844" xlink:href="#DejaVuSans-97"/>
     <use x="2102.494141" xlink:href="#DejaVuSans-114"/>
     <use x="2143.607422" xlink:href="#DejaVuSans-97"/>
     <use x="2204.886719" xlink:href="#DejaVuSans-109"/>
     <use x="2302.298828" xlink:href="#DejaVuSans-101"/>
     <use x="2363.822266" xlink:href="#DejaVuSans-116"/>
     <use x="2403.03125" xlink:href="#DejaVuSans-101"/>
     <use x="2464.554688" xlink:href="#DejaVuSans-114"/>
     <use x="2505.667969" xlink:href="#DejaVuSans-115"/>
    </g>
   </g>
  </g>
 </g>
 <defs>
  <clipPath id="p5e90cab242">
   <rect height="290.84" width="290.84" x="84.98" y="26.88"/>
  </clipPath>
 </defs>
</svg>
