<?xml version="1.0" encoding="utf-8" standalone="no"?>
<!DOCTYPE svg PUBLIC "-//W3C//DTD SVG 1.1//EN"
  "http://www.w3.org/Graphics/SVG/1.1/DTD/svg11.dtd">
<!-- Created with matplotlib (https://matplotlib.org/) -->
<svg height="345.6pt" version="1.1" viewBox="0 0 460.8 345.6" width="460.8pt" xmlns="http://www.w3.org/2000/svg" xmlns:xlink="http://www.w3.org/1999/xlink">
 <defs>
  <style type="text/css">
*{stroke-linecap:butt;stroke-linejoin:round;white-space:pre;}
  </style>
 </defs>
 <g id="figure_1">
  <g id="patch_1">
   <path d="M 0 345.6 
L 460.8 345.6 
L 460.8 0 
L 0 0 
z
" style="fill:#ffffff;"/>
  </g>
  <g id="axes_1">
   <g id="patch_2">
    <path d="M 84.98 317.72 
L 375.82 317.72 
L 375.82 26.88 
L 84.98 26.88 
z
" style="fill:#ffffff;"/>
   </g>
   <g id="matplotlib.axis_1">
    <g id="xtick_1">
     <g id="line2d_1">
      <defs>
       <path d="M 0 0 
L 0 3.5 
" id="m75c88c9241" style="stroke:#000000;stroke-width:0.8;"/>
      </defs>
      <g>
       <use style="stroke:#000000;stroke-width:0.8;" x="364.004624" xlink:href="#m75c88c9241" y="317.72"/>
      </g>
     </g>
     <g id="text_1">
      <!-- −10 -->
      <defs>
       <path d="M 10.59375 35.5 
L 73.1875 35.5 
L 73.1875 27.203125 
L 10.59375 27.203125 
z
" id="DejaVuSans-8722"/>
       <path d="M 12.40625 8.296875 
L 28.515625 8.296875 
L 28.515625 63.921875 
L 10.984375 60.40625 
L 10.984375 69.390625 
L 28.421875 72.90625 
L 38.28125 72.90625 
L 38.28125 8.296875 
L 54.390625 8.296875 
L 54.390625 0 
L 12.40625 0 
z
" id="DejaVuSans-49"/>
       <path d="M 31.78125 66.40625 
Q 24.171875 66.40625 20.328125 58.90625 
Q 16.5 51.421875 16.5 36.375 
Q 16.5 21.390625 20.328125 13.890625 
Q 24.171875 6.390625 31.78125 6.390625 
Q 39.453125 6.390625 43.28125 13.890625 
Q 47.125 21.390625 47.125 36.375 
Q 47.125 51.421875 43.28125 58.90625 
Q 39.453125 66.40625 31.78125 66.40625 
z
M 31.78125 74.21875 
Q 44.046875 74.21875 50.515625 64.515625 
Q 56.984375 54.828125 56.984375 36.375 
Q 56.984375 17.96875 50.515625 8.265625 
Q 44.046875 -1.421875 31.78125 -1.421875 
Q 19.53125 -1.421875 13.0625 8.265625 
Q 6.59375 17.96875 6.59375 36.375 
Q 6.59375 54.828125 13.0625 64.515625 
Q 19.53125 74.21875 31.78125 74.21875 
z
" id="DejaVuSans-48"/>
      </defs>
      <g transform="translate(353.45228 332.318437)scale(0.1 -0.1)">
       <use xlink:href="#DejaVuSans-8722"/>
       <use x="83.789062" xlink:href="#DejaVuSans-49"/>
       <use x="147.412109" xlink:href="#DejaVuSans-48"/>
      </g>
     </g>
    </g>
    <g id="xtick_2">
     <g id="line2d_2">
      <g>
       <use style="stroke:#000000;stroke-width:0.8;" x="318.560875" xlink:href="#m75c88c9241" y="317.72"/>
      </g>
     </g>
     <g id="text_2">
      <!-- −5 -->
      <defs>
       <path d="M 10.796875 72.90625 
L 49.515625 72.90625 
L 49.515625 64.59375 
L 19.828125 64.59375 
L 19.828125 46.734375 
Q 21.96875 47.46875 24.109375 47.828125 
Q 26.265625 48.1875 28.421875 48.1875 
Q 40.625 48.1875 47.75 41.5 
Q 54.890625 34.8125 54.890625 23.390625 
Q 54.890625 11.625 47.5625 5.09375 
Q 40.234375 -1.421875 26.90625 -1.421875 
Q 22.3125 -1.421875 17.546875 -0.640625 
Q 12.796875 0.140625 7.71875 1.703125 
L 7.71875 11.625 
Q 12.109375 9.234375 16.796875 8.0625 
Q 21.484375 6.890625 26.703125 6.890625 
Q 35.15625 6.890625 40.078125 11.328125 
Q 45.015625 15.765625 45.015625 23.390625 
Q 45.015625 31 40.078125 35.4375 
Q 35.15625 39.890625 26.703125 39.890625 
Q 22.75 39.890625 18.8125 39.015625 
Q 14.890625 38.140625 10.796875 36.28125 
z
" id="DejaVuSans-53"/>
      </defs>
      <g transform="translate(311.189781 332.318437)scale(0.1 -0.1)">
       <use xlink:href="#DejaVuSans-8722"/>
       <use x="83.789062" xlink:href="#DejaVuSans-53"/>
      </g>
     </g>
    </g>
    <g id="xtick_3">
     <g id="line2d_3">
      <g>
       <use style="stroke:#000000;stroke-width:0.8;" x="273.117126" xlink:href="#m75c88c9241" y="317.72"/>
      </g>
     </g>
     <g id="text_3">
      <!-- 0 -->
      <g transform="translate(269.935876 332.318437)scale(0.1 -0.1)">
       <use xlink:href="#DejaVuSans-48"/>
      </g>
     </g>
    </g>
    <g id="xtick_4">
     <g id="line2d_4">
      <g>
       <use style="stroke:#000000;stroke-width:0.8;" x="227.673378" xlink:href="#m75c88c9241" y="317.72"/>
      </g>
     </g>
     <g id="text_4">
      <!-- 5 -->
      <g transform="translate(224.492128 332.318437)scale(0.1 -0.1)">
       <use xlink:href="#DejaVuSans-53"/>
      </g>
     </g>
    </g>
    <g id="xtick_5">
     <g id="line2d_5">
      <g>
       <use style="stroke:#000000;stroke-width:0.8;" x="182.229629" xlink:href="#m75c88c9241" y="317.72"/>
      </g>
     </g>
     <g id="text_5">
      <!-- 10 -->
      <g transform="translate(175.867129 332.318437)scale(0.1 -0.1)">
       <use xlink:href="#DejaVuSans-49"/>
       <use x="63.623047" xlink:href="#DejaVuSans-48"/>
      </g>
     </g>
    </g>
    <g id="xtick_6">
     <g id="line2d_6">
      <g>
       <use style="stroke:#000000;stroke-width:0.8;" x="136.78588" xlink:href="#m75c88c9241" y="317.72"/>
      </g>
     </g>
     <g id="text_6">
      <!-- 15 -->
      <g transform="translate(130.42338 332.318437)scale(0.1 -0.1)">
       <use xlink:href="#DejaVuSans-49"/>
       <use x="63.623047" xlink:href="#DejaVuSans-53"/>
      </g>
     </g>
    </g>
    <g id="xtick_7">
     <g id="line2d_7">
      <g>
       <use style="stroke:#000000;stroke-width:0.8;" x="91.342132" xlink:href="#m75c88c9241" y="317.72"/>
      </g>
     </g>
     <g id="text_7">
      <!-- 20 -->
      <defs>
       <path d="M 19.1875 8.296875 
L 53.609375 8.296875 
L 53.609375 0 
L 7.328125 0 
L 7.328125 8.296875 
Q 12.9375 14.109375 22.625 23.890625 
Q 32.328125 33.6875 34.8125 36.53125 
Q 39.546875 41.84375 41.421875 45.53125 
Q 43.3125 49.21875 43.3125 52.78125 
Q 43.3125 58.59375 39.234375 62.25 
Q 35.15625 65.921875 28.609375 65.921875 
Q 23.96875 65.921875 18.8125 64.3125 
Q 13.671875 62.703125 7.8125 59.421875 
L 7.8125 69.390625 
Q 13.765625 71.78125 18.9375 73 
Q 24.125 74.21875 28.421875 74.21875 
Q 39.75 74.21875 46.484375 68.546875 
Q 53.21875 62.890625 53.21875 53.421875 
Q 53.21875 48.921875 51.53125 44.890625 
Q 49.859375 40.875 45.40625 35.40625 
Q 44.1875 33.984375 37.640625 27.21875 
Q 31.109375 20.453125 19.1875 8.296875 
z
" id="DejaVuSans-50"/>
      </defs>
      <g transform="translate(84.979632 332.318437)scale(0.1 -0.1)">
       <use xlink:href="#DejaVuSans-50"/>
       <use x="63.623047" xlink:href="#DejaVuSans-48"/>
      </g>
     </g>
    </g>
   </g>
   <g id="matplotlib.axis_2">
    <g id="ytick_1">
     <g id="line2d_8">
      <defs>
       <path d="M 0 0 
L -3.5 0 
" id="mc3c3f0b2dd" style="stroke:#000000;stroke-width:0.8;"/>
      </defs>
      <g>
       <use style="stroke:#000000;stroke-width:0.8;" x="84.98" xlink:href="#mc3c3f0b2dd" y="314.128566"/>
      </g>
     </g>
     <g id="text_8">
      <!-- −1.00 -->
      <defs>
       <path d="M 10.6875 12.40625 
L 21 12.40625 
L 21 0 
L 10.6875 0 
z
" id="DejaVuSans-46"/>
      </defs>
      <g transform="translate(47.334688 317.927784)scale(0.1 -0.1)">
       <use xlink:href="#DejaVuSans-8722"/>
       <use x="83.789062" xlink:href="#DejaVuSans-49"/>
       <use x="147.412109" xlink:href="#DejaVuSans-46"/>
       <use x="179.199219" xlink:href="#DejaVuSans-48"/>
       <use x="242.822266" xlink:href="#DejaVuSans-48"/>
      </g>
     </g>
    </g>
    <g id="ytick_2">
     <g id="line2d_9">
      <g>
       <use style="stroke:#000000;stroke-width:0.8;" x="84.98" xlink:href="#mc3c3f0b2dd" y="279.874995"/>
      </g>
     </g>
     <g id="text_9">
      <!-- −0.75 -->
      <defs>
       <path d="M 8.203125 72.90625 
L 55.078125 72.90625 
L 55.078125 68.703125 
L 28.609375 0 
L 18.3125 0 
L 43.21875 64.59375 
L 8.203125 64.59375 
z
" id="DejaVuSans-55"/>
      </defs>
      <g transform="translate(47.334688 283.674214)scale(0.1 -0.1)">
       <use xlink:href="#DejaVuSans-8722"/>
       <use x="83.789062" xlink:href="#DejaVuSans-48"/>
       <use x="147.412109" xlink:href="#DejaVuSans-46"/>
       <use x="179.199219" xlink:href="#DejaVuSans-55"/>
       <use x="242.822266" xlink:href="#DejaVuSans-53"/>
      </g>
     </g>
    </g>
    <g id="ytick_3">
     <g id="line2d_10">
      <g>
       <use style="stroke:#000000;stroke-width:0.8;" x="84.98" xlink:href="#mc3c3f0b2dd" y="245.621424"/>
      </g>
     </g>
     <g id="text_10">
      <!-- −0.50 -->
      <g transform="translate(47.334688 249.420643)scale(0.1 -0.1)">
       <use xlink:href="#DejaVuSans-8722"/>
       <use x="83.789062" xlink:href="#DejaVuSans-48"/>
       <use x="147.412109" xlink:href="#DejaVuSans-46"/>
       <use x="179.199219" xlink:href="#DejaVuSans-53"/>
       <use x="242.822266" xlink:href="#DejaVuSans-48"/>
      </g>
     </g>
    </g>
    <g id="ytick_4">
     <g id="line2d_11">
      <g>
       <use style="stroke:#000000;stroke-width:0.8;" x="84.98" xlink:href="#mc3c3f0b2dd" y="211.367853"/>
      </g>
     </g>
     <g id="text_11">
      <!-- −0.25 -->
      <g transform="translate(47.334688 215.167072)scale(0.1 -0.1)">
       <use xlink:href="#DejaVuSans-8722"/>
       <use x="83.789062" xlink:href="#DejaVuSans-48"/>
       <use x="147.412109" xlink:href="#DejaVuSans-46"/>
       <use x="179.199219" xlink:href="#DejaVuSans-50"/>
       <use x="242.822266" xlink:href="#DejaVuSans-53"/>
      </g>
     </g>
    </g>
    <g id="ytick_5">
     <g id="line2d_12">
      <g>
       <use style="stroke:#000000;stroke-width:0.8;" x="84.98" xlink:href="#mc3c3f0b2dd" y="177.114283"/>
      </g>
     </g>
     <g id="text_12">
      <!-- 0.00 -->
      <g transform="translate(55.714375 180.913502)scale(0.1 -0.1)">
       <use xlink:href="#DejaVuSans-48"/>
       <use x="63.623047" xlink:href="#DejaVuSans-46"/>
       <use x="95.410156" xlink:href="#DejaVuSans-48"/>
       <use x="159.033203" xlink:href="#DejaVuSans-48"/>
      </g>
     </g>
    </g>
    <g id="ytick_6">
     <g id="line2d_13">
      <g>
       <use style="stroke:#000000;stroke-width:0.8;" x="84.98" xlink:href="#mc3c3f0b2dd" y="142.860712"/>
      </g>
     </g>
     <g id="text_13">
      <!-- 0.25 -->
      <g transform="translate(55.714375 146.659931)scale(0.1 -0.1)">
       <use xlink:href="#DejaVuSans-48"/>
       <use x="63.623047" xlink:href="#DejaVuSans-46"/>
       <use x="95.410156" xlink:href="#DejaVuSans-50"/>
       <use x="159.033203" xlink:href="#DejaVuSans-53"/>
      </g>
     </g>
    </g>
    <g id="ytick_7">
     <g id="line2d_14">
      <g>
       <use style="stroke:#000000;stroke-width:0.8;" x="84.98" xlink:href="#mc3c3f0b2dd" y="108.607141"/>
      </g>
     </g>
     <g id="text_14">
      <!-- 0.50 -->
      <g transform="translate(55.714375 112.40636)scale(0.1 -0.1)">
       <use xlink:href="#DejaVuSans-48"/>
       <use x="63.623047" xlink:href="#DejaVuSans-46"/>
       <use x="95.410156" xlink:href="#DejaVuSans-53"/>
       <use x="159.033203" xlink:href="#DejaVuSans-48"/>
      </g>
     </g>
    </g>
    <g id="ytick_8">
     <g id="line2d_15">
      <g>
       <use style="stroke:#000000;stroke-width:0.8;" x="84.98" xlink:href="#mc3c3f0b2dd" y="74.353571"/>
      </g>
     </g>
     <g id="text_15">
      <!-- 0.75 -->
      <g transform="translate(55.714375 78.152789)scale(0.1 -0.1)">
       <use xlink:href="#DejaVuSans-48"/>
       <use x="63.623047" xlink:href="#DejaVuSans-46"/>
       <use x="95.410156" xlink:href="#DejaVuSans-55"/>
       <use x="159.033203" xlink:href="#DejaVuSans-53"/>
      </g>
     </g>
    </g>
    <g id="ytick_9">
     <g id="line2d_16">
      <g>
       <use style="stroke:#000000;stroke-width:0.8;" x="84.98" xlink:href="#mc3c3f0b2dd" y="40.1"/>
      </g>
     </g>
     <g id="text_16">
      <!-- 1.00 -->
      <g transform="translate(55.714375 43.899219)scale(0.1 -0.1)">
       <use xlink:href="#DejaVuSans-49"/>
       <use x="63.623047" xlink:href="#DejaVuSans-46"/>
       <use x="95.410156" xlink:href="#DejaVuSans-48"/>
       <use x="159.033203" xlink:href="#DejaVuSans-48"/>
      </g>
     </g>
    </g>
   </g>
   <g id="line2d_17">
    <path clip-path="url(#pe3aa0ed537)" d="M 84.98 179.820135 
L 140.817872 175.547132 
L 156.020554 174.100022 
L 167.955363 172.746308 
L 178.185199 171.34203 
L 185.857585 170.060647 
L 192.677475 168.681508 
L 198.076555 167.364593 
L 203.191473 165.860893 
L 210.153445 163.206186 
L 211.290098 162.648326 
L 212.142584 162.240754 
L 213.705476 161.398464 
L 214.2738 161.104213 
L 215.836692 160.158797 
L 216.405016 159.754516 
L 217.683745 158.907543 
L 218.25207 158.440708 
L 220.525367 156.540063 
L 221.093691 155.939007 
L 221.804096 155.278953 
L 222.656582 154.253976 
L 222.940745 153.863153 
L 224.929879 151.499069 
L 225.07196 151.511013 
L 226.066528 150.348229 
L 226.35069 149.705436 
L 226.492771 149.595475 
L 227.203176 147.917995 
L 227.487338 147.48523 
L 227.7715 146.613052 
L 227.913582 146.437713 
L 228.197744 145.371223 
L 228.339825 145.198686 
L 229.192315 141.634966 
L 229.76064 137.980491 
L 229.902721 139.196466 
L 230.044802 138.713235 
L 230.186883 135.509419 
L 230.328964 141.324154 
L 230.471045 133.82967 
L 230.755207 40.1 
L 231.039369 304.5 
L 231.323531 142.276096 
L 231.465612 135.605819 
L 231.749774 140.556183 
L 231.891855 137.063875 
L 232.176018 137.632987 
L 232.318099 136.846163 
L 232.46018 136.952689 
L 232.602261 136.415301 
L 232.744342 136.374839 
L 232.886423 136.119189 
L 233.170585 135.210559 
L 233.312666 134.890878 
L 233.596828 133.787142 
L 233.738909 133.599402 
L 234.023071 132.66156 
L 234.165152 132.483282 
L 234.733477 129.835009 
L 235.443882 125.372592 
L 236.012206 122.926665 
L 236.296368 122.02799 
L 236.58053 120.467238 
L 237.433017 112.683274 
L 237.717179 112.050695 
L 237.85926 112.099168 
L 238.001341 112.340649 
L 238.143422 112.863484 
L 238.569665 117.145883 
L 238.995908 124.35989 
L 239.990476 139.957651 
L 241.269205 155.221972 
L 241.411286 155.058119 
L 241.695448 153.415296 
L 242.121691 147.709079 
L 242.832099 133.446681 
L 243.258342 125.119175 
L 243.400423 124.043651 
L 243.542504 125.219899 
L 243.826666 136.900659 
L 244.110828 151.032847 
L 244.394991 154.77241 
L 244.537072 154.109569 
L 245.531639 144.650103 
L 245.815801 144.020196 
L 246.099963 143.837209 
L 246.668287 145.009459 
L 246.810368 144.863264 
L 247.094531 143.531565 
L 247.662855 139.380621 
L 248.089098 135.045241 
L 249.509909 118.353499 
L 249.794071 116.811147 
L 249.936152 116.50793 
L 250.078233 116.557306 
L 250.220314 116.836904 
L 250.362395 117.556916 
L 250.646557 121.161096 
L 251.0728 126.449488 
L 251.356964 130.242216 
L 251.783208 138.047707 
L 252.06737 140.071315 
L 252.209451 140.552814 
L 252.351532 140.632529 
L 252.493613 140.205273 
L 253.204018 135.911812 
L 253.346099 136.141798 
L 253.48818 136.688787 
L 253.630261 137.749105 
L 253.914423 143.311099 
L 254.198586 156.00362 
L 254.624829 193.387827 
L 255.051072 226.632193 
L 255.335234 235.18666 
L 255.477315 236.669354 
L 255.619396 236.979141 
L 255.761477 236.392732 
L 256.045639 233.381768 
L 257.750612 210.210207 
L 258.176856 208.035624 
L 258.461018 207.670143 
L 258.887262 207.664212 
L 259.313505 207.368674 
L 259.455586 207.433458 
L 259.597667 207.726836 
L 259.881829 209.358072 
L 260.308072 214.581563 
L 261.160558 227.208737 
L 261.444721 229.187105 
L 261.728883 229.887692 
L 261.870964 229.878725 
L 262.155126 229.383628 
L 262.439288 228.311909 
L 262.865532 225.428917 
L 263.718019 219.017823 
L 263.8601 218.767252 
L 264.002181 218.983269 
L 264.286343 220.955651 
L 264.712586 227.288395 
L 265.565072 241.536243 
L 265.849234 242.672209 
L 265.991315 242.537152 
L 266.275478 241.345567 
L 266.985883 236.213474 
L 268.122532 228.334029 
L 269.1171 223.080109 
L 270.111667 218.968602 
L 271.248316 215.223114 
L 272.384965 212.184179 
L 273.663695 209.362423 
L 275.084505 206.763736 
L 276.647397 204.381097 
L 278.352371 202.200861 
L 280.199425 200.210715 
L 282.18856 198.391497 
L 284.461857 196.62825 
L 286.877236 195.034654 
L 289.576776 193.51598 
L 292.560479 192.083266 
L 295.970425 190.689797 
L 300.090778 189.266885 
L 304.637371 187.946056 
L 309.894373 186.658758 
L 316.003858 185.400924 
L 323.249996 184.146895 
L 331.77486 182.908327 
L 342.146781 181.635708 
L 355.076157 180.289453 
L 371.273406 178.82803 
L 375.82 178.448252 
L 375.82 178.448252 
" style="fill:none;stroke:#ff0000;stroke-linecap:square;stroke-width:1.5;"/>
   </g>
   <g id="line2d_18">
    <path clip-path="url(#pe3aa0ed537)" d="M 84.98 170.947078 
L 85.406243 174.340712 
L 85.548324 171.540518 
L 85.690405 177.184353 
L 85.974567 170.33474 
L 86.116648 173.611999 
L 86.400811 173.120021 
L 86.684973 174.026083 
L 86.827054 174.271116 
L 87.111216 169.924984 
L 87.253297 170.582174 
L 87.395378 175.921718 
L 87.537459 173.013136 
L 87.67954 173.136551 
L 87.821621 174.180155 
L 88.105783 172.690862 
L 88.389945 176.333221 
L 88.532026 175.980208 
L 88.816189 168.610687 
L 88.95827 174.270985 
L 89.100351 170.764683 
L 89.242432 172.168488 
L 89.384513 176.325364 
L 89.526594 171.974888 
L 89.668675 173.26302 
L 89.810756 170.553035 
L 90.094918 175.430753 
L 90.236999 174.551642 
L 90.37908 172.520047 
L 90.521161 174.240883 
L 90.663242 173.989528 
L 90.805323 172.75693 
L 90.947404 174.822547 
L 91.089485 171.656159 
L 91.373648 174.673995 
L 91.515729 172.346081 
L 91.65781 175.784926 
L 91.799891 171.157599 
L 92.084053 173.200969 
L 92.226134 172.658767 
L 92.368232 176.45461 
L 92.652394 170.267169 
L 92.936556 173.150695 
L 93.078638 173.797334 
L 93.220719 172.906054 
L 93.3628 174.049162 
L 93.504881 172.088291 
L 93.646962 174.548244 
L 93.789043 172.353757 
L 93.931124 168.215452 
L 94.073205 172.121987 
L 94.215286 172.207639 
L 94.357367 175.265051 
L 94.641529 170.984383 
L 94.78361 172.558888 
L 94.925691 172.081072 
L 95.067772 170.505195 
L 95.209853 171.702072 
L 95.351934 169.277154 
L 95.494015 175.120664 
L 95.636097 174.650213 
L 95.778178 171.000913 
L 96.06234 175.523755 
L 96.204421 172.777935 
L 96.346502 172.337947 
L 96.488583 171.039068 
L 96.772745 175.445616 
L 97.056907 170.263706 
L 97.341069 174.76814 
L 97.48315 174.300369 
L 97.625231 170.924228 
L 97.909393 172.792374 
L 98.193556 170.911716 
L 98.335637 173.14328 
L 98.477718 172.711589 
L 98.76188 174.693252 
L 98.903961 174.08712 
L 99.046042 172.070977 
L 99.188123 174.372236 
L 99.472285 173.299509 
L 99.756447 171.214325 
L 99.898528 172.1287 
L 100.040609 175.052145 
L 100.18269 173.374871 
L 100.324771 173.720599 
L 100.466852 172.850733 
L 100.608934 173.923231 
L 100.751015 170.596123 
L 100.893096 178.552477 
L 101.035177 170.930647 
L 101.177258 169.927206 
L 101.46142 173.267936 
L 101.745582 175.389936 
L 101.887663 169.589546 
L 102.029744 173.330999 
L 102.171825 173.261387 
L 102.313906 172.593564 
L 102.455987 176.50397 
L 102.598068 169.795657 
L 102.88223 174.687601 
L 103.024311 171.468619 
L 103.166393 174.522454 
L 103.308474 170.110009 
L 103.450555 173.13464 
L 103.734717 174.588686 
L 103.876798 169.953845 
L 104.16096 175.663095 
L 104.303041 170.646822 
L 104.445122 174.241438 
L 104.587203 173.335769 
L 104.729284 173.888637 
L 104.871365 172.031353 
L 105.013446 175.681993 
L 105.155527 174.716968 
L 105.297608 174.762391 
L 105.439689 173.613289 
L 105.58177 170.206294 
L 105.865933 172.847123 
L 106.150095 170.39323 
L 106.292176 173.991064 
L 106.434257 174.30981 
L 106.576338 169.919905 
L 106.8605 174.605607 
L 107.002581 173.326197 
L 107.144662 170.623154 
L 107.286743 173.683082 
L 107.428824 174.078284 
L 107.570905 173.399453 
L 107.712986 168.874748 
L 107.997148 174.228339 
L 108.139229 171.711774 
L 108.281311 171.927717 
L 108.423392 173.363209 
L 108.565473 173.191284 
L 108.707554 170.940953 
L 108.849635 171.693497 
L 108.991716 170.778681 
L 109.275878 174.83238 
L 109.417959 168.980981 
L 109.56004 173.029551 
L 109.702121 168.969662 
L 109.844202 174.851816 
L 109.986283 171.586709 
L 110.128364 173.268933 
L 110.270445 172.93859 
L 110.412526 174.440803 
L 110.554607 172.693475 
L 110.696689 174.383555 
L 110.83877 170.191676 
L 110.980851 172.286643 
L 111.122932 169.546769 
L 111.265013 174.962426 
L 111.407094 171.778316 
L 111.549175 172.958778 
L 111.691256 171.511608 
L 111.833337 171.93069 
L 111.975418 170.689942 
L 112.117499 170.783663 
L 112.25958 172.935029 
L 112.543742 168.138864 
L 112.685823 174.185823 
L 112.827904 169.841341 
L 113.112066 173.244727 
L 113.254148 173.9762 
L 113.396229 177.044507 
L 113.53831 170.419134 
L 113.680391 173.495264 
L 113.822472 172.802517 
L 113.964553 173.09673 
L 114.106634 171.786417 
L 114.390796 174.64809 
L 114.532877 170.768244 
L 114.674958 173.419608 
L 114.817039 173.930598 
L 115.101201 171.603288 
L 115.385363 175.910676 
L 115.527444 170.207633 
L 115.669525 169.824011 
L 115.953688 174.136627 
L 116.095769 173.721596 
L 116.23785 173.953856 
L 116.379931 173.439371 
L 116.522012 174.53 
L 116.664093 173.647753 
L 116.806174 169.757404 
L 117.090336 175.648771 
L 117.232417 171.960433 
L 117.374498 175.011099 
L 117.516579 173.230255 
L 117.65866 174.821616 
L 117.800741 169.064068 
L 117.942822 175.455661 
L 118.084903 172.525944 
L 118.226984 174.019484 
L 118.511147 169.629759 
L 118.653228 173.010784 
L 118.795309 172.711883 
L 118.93739 172.83386 
L 119.079471 171.675171 
L 119.221552 176.886988 
L 119.505714 174.581744 
L 119.647795 171.838684 
L 119.789876 176.174199 
L 119.931957 173.020126 
L 120.074038 173.443357 
L 120.3582 171.454278 
L 120.500281 172.781055 
L 120.642362 172.44346 
L 120.926525 172.812039 
L 121.068606 174.531257 
L 121.494849 170.866015 
L 121.63693 174.435952 
L 121.779011 172.988913 
L 121.921092 176.188556 
L 122.063173 169.962143 
L 122.205254 174.218016 
L 122.489416 170.290493 
L 122.631497 170.73102 
L 122.773578 170.188262 
L 122.915659 168.535831 
L 123.05774 171.369802 
L 123.199821 170.378791 
L 123.341903 174.358303 
L 123.483984 174.907284 
L 123.626065 169.741724 
L 123.768146 173.024536 
L 123.910227 168.504732 
L 124.052308 172.679379 
L 124.194389 171.309973 
L 124.33647 173.648226 
L 124.478551 173.530495 
L 124.620632 174.792493 
L 124.762713 170.676352 
L 124.904794 171.968404 
L 125.046875 169.119684 
L 125.331037 170.534252 
L 125.473118 171.818137 
L 125.615199 170.650186 
L 125.75728 173.571361 
L 125.899362 171.904785 
L 126.183524 174.370096 
L 126.467686 171.400035 
L 126.609767 171.297935 
L 126.751848 167.821229 
L 126.893929 173.526624 
L 127.03601 172.193086 
L 127.178091 172.398102 
L 127.462253 173.12778 
L 127.604334 173.494333 
L 127.746415 168.190233 
L 127.888496 172.506327 
L 128.030577 171.172854 
L 128.172658 173.009265 
L 128.314739 172.726534 
L 128.456821 170.399436 
L 128.598902 171.100987 
L 128.740983 173.288141 
L 128.883064 171.725706 
L 129.025145 168.8771 
L 129.167226 172.713434 
L 129.309307 170.049102 
L 129.451388 172.585446 
L 129.593469 172.267207 
L 129.73555 172.363574 
L 129.877631 175.762778 
L 130.019712 171.53245 
L 130.161793 170.781882 
L 130.303874 171.677817 
L 130.445955 169.271061 
L 130.588036 173.262252 
L 130.872198 169.641747 
L 131.01428 170.400449 
L 131.156361 168.831579 
L 131.582604 174.295142 
L 131.724685 170.58023 
L 131.866766 173.703923 
L 132.008847 169.83845 
L 132.150928 171.703673 
L 132.293009 171.16013 
L 132.43509 169.516095 
L 132.577171 170.644322 
L 132.719252 175.925131 
L 132.861333 169.133485 
L 133.003414 171.994439 
L 133.287576 169.316207 
L 133.429657 169.994417 
L 133.571739 172.326774 
L 133.71382 170.185632 
L 133.855901 173.542647 
L 133.997982 173.295295 
L 134.140063 171.62047 
L 134.282144 173.355859 
L 134.424225 170.344115 
L 134.566306 174.611258 
L 134.708387 172.357122 
L 134.850468 172.071467 
L 134.992549 170.960488 
L 135.13463 172.084763 
L 135.276711 166.997864 
L 135.418792 171.387017 
L 135.560873 171.712362 
L 135.702954 168.851539 
L 135.845035 169.900027 
L 135.987117 173.578172 
L 136.129198 171.268159 
L 136.271279 172.242756 
L 136.41336 172.14255 
L 136.555441 175.344006 
L 136.697522 170.431303 
L 136.839603 173.404336 
L 136.981684 171.317748 
L 137.123765 174.669716 
L 137.265846 171.470334 
L 137.407927 172.142534 
L 137.692089 171.206632 
L 137.83417 172.852726 
L 137.976251 169.42404 
L 138.260413 171.341251 
L 138.402494 165.98606 
L 138.544576 176.4102 
L 138.828738 169.444571 
L 138.970819 168.457757 
L 139.254981 172.594756 
L 139.397062 174.696078 
L 139.539143 169.045693 
L 139.681224 168.168297 
L 139.823305 170.845746 
L 140.107467 170.022691 
L 140.249548 175.733639 
L 140.53371 167.587237 
L 140.675791 171.192634 
L 140.817872 171.296645 
L 140.959953 172.687219 
L 141.102035 171.161715 
L 141.244116 172.323638 
L 141.386197 167.760518 
L 141.670359 172.418715 
L 141.81244 171.666155 
L 141.954521 169.999693 
L 142.096602 172.429871 
L 142.238683 171.293607 
L 142.380764 168.760398 
L 142.664926 172.373602 
L 142.949088 167.625278 
L 143.23325 175.69145 
L 143.375331 172.623258 
L 143.517412 172.507569 
L 143.659494 168.376466 
L 143.801575 168.246746 
L 143.943656 165.920988 
L 144.085737 173.014018 
L 144.369899 169.950824 
L 144.51198 170.450788 
L 144.654061 169.491056 
L 144.796142 173.332453 
L 144.938223 172.005334 
L 145.080304 167.490266 
L 145.222385 172.251625 
L 145.364466 171.170143 
L 145.648628 172.304006 
L 145.93279 164.649467 
L 146.074871 169.142583 
L 146.216953 168.676592 
L 146.359034 171.558943 
L 146.643196 168.345759 
L 146.785285 169.242756 
L 146.927366 171.405735 
L 147.069448 167.845011 
L 147.211529 173.196674 
L 147.35361 168.847733 
L 147.495691 169.450189 
L 147.637772 171.778937 
L 147.779853 169.112301 
L 147.921934 168.627853 
L 148.064015 169.62138 
L 148.206096 172.075241 
L 148.490258 170.095995 
L 148.632339 169.185997 
L 148.77442 169.645765 
L 148.916501 173.628969 
L 149.200663 168.561539 
L 149.626907 173.121949 
L 149.768988 169.95427 
L 149.911069 170.115203 
L 150.05315 167.717904 
L 150.195231 171.100726 
L 150.337312 170.255049 
L 150.621474 170.705181 
L 150.763555 168.821371 
L 150.905636 171.128378 
L 151.047717 168.258261 
L 151.331879 172.725864 
L 151.47396 172.299351 
L 151.758122 169.452754 
L 151.900203 171.491486 
L 152.042285 167.18952 
L 152.184366 169.324014 
L 152.326447 169.360193 
L 152.468528 169.195127 
L 152.610609 168.794012 
L 152.894771 171.164557 
L 153.036852 168.163397 
L 153.178933 170.616458 
L 153.321014 167.626895 
L 153.463095 169.824191 
L 153.605176 168.653317 
L 153.747257 169.539108 
L 153.889338 166.902804 
L 154.031419 170.932051 
L 154.1735 170.663122 
L 154.315581 173.843753 
L 154.457662 165.40242 
L 154.741825 170.500589 
L 154.883906 166.799838 
L 155.025987 170.646528 
L 155.168068 168.075083 
L 155.310149 172.233135 
L 155.594311 169.792145 
L 155.736392 164.558785 
L 155.878473 170.99384 
L 156.020554 167.250819 
L 156.446797 170.49577 
L 156.588878 167.883051 
L 156.87304 171.396442 
L 157.299284 166.404146 
L 157.441365 171.66016 
L 157.583446 170.967413 
L 157.725527 170.960651 
L 158.009689 166.242021 
L 158.15177 167.560794 
L 158.293851 165.803453 
L 158.578013 168.911956 
L 158.720094 168.389516 
L 158.862175 170.713772 
L 159.146337 167.667189 
L 159.288418 168.439692 
L 159.430499 172.030912 
L 159.57258 169.376314 
L 159.714662 169.326154 
L 159.856743 167.032654 
L 159.998824 168.314056 
L 160.140905 166.81395 
L 160.425067 169.790218 
L 160.567148 168.567909 
L 160.709229 171.990209 
L 160.85131 166.002851 
L 160.993391 171.267751 
L 161.135472 169.199374 
L 161.277553 169.066959 
L 161.561715 163.558676 
L 161.703796 169.506295 
L 161.845877 168.678176 
L 161.987958 167.073389 
L 162.13004 167.786472 
L 162.272121 171.268519 
L 162.414202 169.13507 
L 162.556283 170.468624 
L 162.698364 169.898541 
L 162.982526 167.279157 
L 163.266688 170.268835 
L 163.55085 169.106715 
L 163.692931 168.200376 
L 163.835012 169.811271 
L 163.977093 167.594702 
L 164.119174 172.11431 
L 164.261255 165.685673 
L 164.403336 167.171896 
L 164.545417 166.994189 
L 164.971661 169.896417 
L 165.113742 169.260641 
L 165.255823 170.22658 
L 165.397904 167.0941 
L 165.539985 169.723022 
L 165.682066 164.011159 
L 165.966228 169.710266 
L 166.25039 164.669541 
L 166.392471 169.212 
L 166.534552 167.969994 
L 166.676633 169.530109 
L 166.818714 165.252692 
L 166.960795 166.978803 
L 167.102876 167.094606 
L 167.244958 168.095124 
L 167.387039 166.551097 
L 167.52912 163.330417 
L 167.671201 170.888049 
L 167.813282 164.292567 
L 167.955363 165.413412 
L 168.097444 168.905128 
L 168.239525 167.339721 
L 168.381606 167.243485 
L 168.523687 167.76073 
L 168.665768 168.860457 
L 168.807849 166.211493 
L 168.94993 166.101766 
L 169.092011 170.045231 
L 169.234092 165.83612 
L 169.376173 167.311122 
L 169.518254 167.188687 
L 169.660335 164.769812 
L 169.802417 167.067999 
L 169.944498 172.432386 
L 170.370741 164.176763 
L 170.512822 163.971404 
L 170.654903 167.957711 
L 170.796984 165.31894 
L 170.939065 169.062239 
L 171.081146 166.353888 
L 171.223227 166.340788 
L 171.365308 167.317753 
L 171.507389 170.535395 
L 171.933632 163.685766 
L 172.075713 167.54642 
L 172.501957 164.765434 
L 172.786119 168.140563 
L 172.9282 167.365969 
L 173.070281 162.998947 
L 173.212362 166.690388 
L 173.496524 163.959611 
L 173.638605 168.029872 
L 173.922767 168.488954 
L 174.064848 168.00155 
L 174.34901 165.790811 
L 174.491091 163.529831 
L 174.633172 170.586943 
L 174.775254 165.394171 
L 175.059416 168.991189 
L 175.201497 166.820647 
L 175.343578 168.89198 
L 175.485659 167.370052 
L 175.62774 167.38423 
L 175.769821 166.002165 
L 175.911902 166.850814 
L 176.053983 169.29303 
L 176.338145 164.009607 
L 176.622307 170.119237 
L 176.764388 163.993372 
L 176.906469 168.086042 
L 177.04855 167.140372 
L 177.190631 163.226994 
L 177.332713 166.100884 
L 177.474794 164.383495 
L 177.758956 167.61293 
L 178.043118 164.932721 
L 178.185199 164.51145 
L 178.611442 167.369121 
L 178.753523 163.941791 
L 178.895604 164.965224 
L 179.037685 164.376243 
L 179.179766 167.524648 
L 179.463928 165.174585 
L 179.606009 168.762097 
L 179.74809 163.048748 
L 179.890172 166.202134 
L 180.032253 165.407989 
L 180.174334 165.774086 
L 180.316415 165.758079 
L 180.458496 166.11676 
L 180.600577 165.615554 
L 180.742658 166.334304 
L 180.884739 166.247182 
L 181.02682 167.413614 
L 181.168901 164.63743 
L 181.310982 165.103764 
L 181.453063 164.870458 
L 181.595144 161.252256 
L 181.737225 166.234981 
L 181.879306 164.630455 
L 182.021387 164.564501 
L 182.163468 163.632519 
L 182.305549 165.893091 
L 182.589712 163.744696 
L 182.731793 165.705828 
L 182.873874 164.989577 
L 183.158044 167.816999 
L 183.300126 165.571944 
L 183.442207 165.813139 
L 183.584288 164.932884 
L 183.726369 162.604627 
L 183.86845 166.209517 
L 184.152612 164.384573 
L 184.294693 165.768091 
L 184.436774 166.007441 
L 184.720936 163.847597 
L 184.863017 167.043287 
L 185.005098 166.442905 
L 185.28926 163.929427 
L 185.431341 161.91201 
L 185.573422 164.179475 
L 185.715503 161.599275 
L 185.999666 165.881494 
L 186.141747 162.986436 
L 186.283828 166.520619 
L 186.425909 162.226591 
L 186.56799 165.817745 
L 186.710071 165.896602 
L 186.852152 160.845343 
L 186.994233 161.137073 
L 187.136314 165.316963 
L 187.278395 160.484653 
L 187.562557 165.459603 
L 187.704638 161.956339 
L 187.846719 166.221865 
L 187.9888 165.062016 
L 188.130881 161.859596 
L 188.272963 162.954684 
L 188.415044 159.971458 
L 188.557125 164.561169 
L 188.699206 163.151664 
L 188.841287 166.195095 
L 188.983368 161.395042 
L 189.125449 161.270206 
L 189.409611 163.072594 
L 189.551692 160.203735 
L 189.693773 165.537905 
L 189.835854 164.691036 
L 189.977935 166.582375 
L 190.120016 161.82234 
L 190.262097 162.134944 
L 190.404178 159.993639 
L 190.546259 164.281182 
L 190.68834 162.196684 
L 190.830422 164.321591 
L 190.972503 163.011344 
L 191.114584 159.295354 
L 191.256665 164.268214 
L 191.540827 161.524517 
L 191.824989 164.949822 
L 192.109151 160.045808 
L 192.393313 164.879752 
L 192.677475 163.775485 
L 192.819556 160.483673 
L 192.961637 162.088296 
L 193.103718 165.247432 
L 193.245799 161.438032 
L 193.387881 163.284667 
L 193.672043 160.699829 
L 193.814124 163.307272 
L 194.098286 159.182915 
L 194.240367 159.459178 
L 194.382448 161.059882 
L 194.524529 164.076591 
L 194.66661 159.610784 
L 194.950772 163.261702 
L 195.092853 157.844379 
L 195.234934 159.942156 
L 195.377015 158.762478 
L 195.661177 164.31447 
L 195.803258 162.345335 
L 195.94534 158.479388 
L 196.087421 158.107363 
L 196.229502 160.846649 
L 196.371583 160.570272 
L 196.513664 160.78076 
L 196.655745 160.30528 
L 196.797826 158.832303 
L 196.939907 164.282277 
L 197.081988 162.995534 
L 197.224069 163.427486 
L 197.36615 158.920944 
L 197.508231 159.269123 
L 197.792393 162.78026 
L 197.934474 160.965752 
L 198.076555 160.912587 
L 198.218636 160.46863 
L 198.360717 161.398015 
L 198.502799 159.416238 
L 198.64488 155.352004 
L 198.929042 161.632203 
L 199.071123 161.338464 
L 199.213204 159.585925 
L 199.355285 159.634876 
L 199.497366 162.35551 
L 199.639447 157.459058 
L 199.781528 158.614726 
L 199.923609 158.553509 
L 200.06569 161.26529 
L 200.207771 160.266782 
L 200.349852 157.037494 
L 200.491933 164.685303 
L 200.634014 160.825694 
L 200.776095 160.880835 
L 201.060258 158.208613 
L 201.202339 159.600674 
L 201.34442 159.675546 
L 201.486501 158.165428 
L 201.628582 158.914003 
L 201.912744 162.133295 
L 202.054825 157.454093 
L 202.196906 157.642531 
L 202.338987 157.588402 
L 202.76523 162.311508 
L 203.049392 155.779808 
L 203.191473 156.959159 
L 203.333554 159.069888 
L 203.475636 159.24508 
L 203.617717 158.08479 
L 203.759798 158.270566 
L 203.901879 161.183068 
L 204.04396 159.628327 
L 204.186041 159.682815 
L 204.328122 156.585582 
L 204.470203 159.37137 
L 204.754365 155.133627 
L 204.896446 158.659578 
L 205.038527 155.917302 
L 205.180608 158.885076 
L 205.322689 153.241781 
L 205.46477 158.89878 
L 205.606851 157.216704 
L 205.891013 158.470927 
L 206.033095 160.513399 
L 206.175176 156.134716 
L 206.317257 159.506251 
L 206.601419 154.969885 
L 206.885581 159.505892 
L 207.027662 152.914493 
L 207.311824 157.623535 
L 207.453905 156.368805 
L 207.595986 157.977006 
L 207.738067 156.323513 
L 207.880148 156.300826 
L 208.022229 154.270408 
L 208.16431 156.798471 
L 208.306391 157.003537 
L 208.448472 152.364123 
L 208.590554 152.122553 
L 208.732635 158.181696 
L 208.874716 154.05515 
L 209.016797 153.61967 
L 209.158878 155.119302 
L 209.300959 155.409514 
L 209.44304 153.655162 
L 209.585121 157.387208 
L 209.727202 154.559851 
L 210.011364 155.764258 
L 210.153445 155.91121 
L 210.295526 155.576833 
L 210.437612 154.603952 
L 210.579693 158.069665 
L 210.721774 152.859318 
L 211.005936 156.072567 
L 211.290098 152.045132 
L 211.432179 154.6212 
L 211.57426 153.194251 
L 211.716341 155.934632 
L 211.858422 154.722516 
L 212.000503 156.355935 
L 212.142584 153.614427 
L 212.284665 153.836087 
L 212.426746 153.063551 
L 212.568827 154.439769 
L 212.710909 152.272346 
L 212.995071 152.464737 
L 213.279233 157.413357 
L 213.421314 150.96548 
L 213.563395 154.285957 
L 213.847557 152.807738 
L 213.989638 154.154604 
L 214.131719 153.975362 
L 214.2738 155.023148 
L 214.415881 152.898159 
L 214.557962 153.336629 
L 214.700043 157.209076 
L 214.842124 151.303466 
L 214.984205 152.124186 
L 215.126286 151.189949 
L 215.268368 152.98747 
L 215.694611 150.344387 
L 215.978773 153.351541 
L 216.120854 151.130953 
L 216.262935 153.712378 
L 216.405016 151.118099 
L 216.547097 153.772909 
L 216.689178 152.586045 
L 216.831259 148.913681 
L 217.115421 150.461889 
L 217.257502 153.746939 
L 217.399583 149.665703 
L 217.541664 151.758645 
L 217.683745 148.721274 
L 217.825827 148.830005 
L 217.967908 148.646827 
L 218.109989 150.686816 
L 218.394151 146.948629 
L 218.678313 150.730328 
L 218.820394 148.261686 
L 218.962475 148.957732 
L 219.104556 146.800437 
L 219.246637 149.693518 
L 219.530799 146.948727 
L 219.67288 150.571176 
L 219.957042 145.843529 
L 220.383286 152.234453 
L 220.525367 148.647823 
L 220.667448 149.455312 
L 220.809529 142.874203 
L 220.95161 150.088329 
L 221.235772 143.2754 
L 221.377853 144.278204 
L 221.519934 147.359332 
L 221.662015 143.412568 
L 221.804096 144.555381 
L 221.946177 144.41021 
L 222.088258 146.149356 
L 222.230339 144.832918 
L 222.37242 146.880829 
L 222.940745 139.187254 
L 223.082826 145.84103 
L 223.224907 146.725205 
L 223.366988 144.609412 
L 223.509069 145.304332 
L 223.65115 144.082432 
L 223.793231 146.040477 
L 223.935312 141.620045 
L 224.077393 145.026142 
L 224.361555 143.649663 
L 224.503636 141.269613 
L 224.645717 144.6541 
L 224.787798 142.154359 
L 224.929879 141.969922 
L 225.07196 139.26247 
L 225.214041 141.400933 
L 225.356123 140.981835 
L 225.498204 141.522878 
L 225.640285 137.537877 
L 225.924447 143.997254 
L 226.208609 139.638464 
L 226.35069 139.600897 
L 226.492771 140.283436 
L 226.634852 138.961952 
L 226.776933 141.526341 
L 226.919014 136.628941 
L 227.203176 141.445474 
L 227.345257 140.943762 
L 227.487338 136.058449 
L 227.629419 135.042905 
L 227.7715 137.490331 
L 227.913582 135.95844 
L 228.055663 136.189966 
L 228.197744 139.57594 
L 228.339825 135.271622 
L 228.481906 135.647534 
L 228.623991 136.902558 
L 228.908153 134.228262 
L 229.050234 138.177901 
L 229.334396 137.571344 
L 229.76064 130.930406 
L 229.902721 133.16705 
L 230.044802 132.014159 
L 230.186883 129.530277 
L 230.328964 133.689048 
L 230.471045 133.173975 
L 230.755207 128.42864 
L 231.039369 131.018525 
L 231.18145 128.410836 
L 231.323531 128.433148 
L 231.465612 131.668152 
L 231.749774 127.329436 
L 231.891855 126.644741 
L 232.033936 123.1028 
L 232.176018 128.578221 
L 232.602261 121.037363 
L 232.744342 123.560183 
L 232.886423 123.343031 
L 233.028504 119.921434 
L 233.170585 124.75363 
L 233.312666 119.021546 
L 233.454747 121.039453 
L 233.596828 116.165835 
L 233.738909 120.181559 
L 234.165152 115.154146 
L 234.307233 111.980032 
L 234.449314 116.185991 
L 234.591395 113.479796 
L 234.733477 113.216289 
L 235.017639 111.798242 
L 235.443882 105.127642 
L 235.585963 107.86492 
L 235.728044 106.713613 
L 235.870125 108.132771 
L 236.012206 106.103284 
L 236.154287 102.034689 
L 236.296368 104.575003 
L 236.438449 102.395526 
L 236.58053 103.47397 
L 236.722611 103.398869 
L 237.006773 104.575476 
L 237.148855 101.358406 
L 237.575098 103.459776 
L 237.717179 99.489508 
L 237.85926 100.314589 
L 238.001341 98.378626 
L 238.143422 98.93811 
L 238.427584 94.425133 
L 238.711746 95.607212 
L 238.853827 90.098732 
L 238.995908 92.82897 
L 239.137989 90.632981 
L 239.28007 90.811357 
L 239.422151 91.80477 
L 239.564232 87.863755 
L 239.706314 87.677685 
L 239.848395 86.982863 
L 239.990476 84.047886 
L 240.132557 85.270505 
L 240.274638 83.704526 
L 240.5588 73.678708 
L 240.842962 69.799907 
L 241.127124 61.389444 
L 241.269205 63.550611 
L 241.553367 58.397529 
L 241.695448 61.31663 
L 241.837529 61.80049 
L 241.97961 68.311561 
L 242.121691 64.192088 
L 242.263775 68.033175 
L 242.547937 82.323964 
L 242.97418 92.458676 
L 243.258342 101.726462 
L 244.821234 136.529602 
L 245.105396 132.070394 
L 245.247477 133.054121 
L 245.531639 129.902155 
L 246.099963 109.127653 
L 246.810368 84.418883 
L 246.95245 87.739719 
L 247.094531 85.6154 
L 247.662855 121.988716 
L 247.947017 130.730306 
L 248.089098 131.608993 
L 248.231179 134.731624 
L 248.515341 126.880138 
L 248.941584 120.7913 
L 249.225746 111.154299 
L 249.65199 109.13796 
L 250.078233 114.380663 
L 250.362395 111.985929 
L 250.504476 112.065766 
L 250.646557 110.469489 
L 250.788638 104.799701 
L 250.930719 106.164844 
L 251.0728 101.931724 
L 251.214881 101.696784 
L 251.356964 100.258239 
L 252.06737 79.834333 
L 252.209451 78.341185 
L 252.351532 68.484189 
L 252.493613 69.950419 
L 252.635694 62.460423 
L 252.777775 61.931059 
L 252.919856 57.965903 
L 253.061937 48.864947 
L 253.204018 48.65975 
L 253.346099 46.925652 
L 253.48818 46.770077 
L 253.630261 46.081837 
L 253.914423 40.1 
L 254.056505 42.582346 
L 254.198586 47.409185 
L 254.340667 58.226878 
L 254.482748 53.363321 
L 254.624829 52.90682 
L 254.76691 54.41377 
L 254.908991 59.591548 
L 255.193153 78.046514 
L 255.619396 81.318285 
L 255.761477 84.607811 
L 255.903558 84.767339 
L 256.471882 63.039017 
L 256.756045 51.851864 
L 256.898126 53.151559 
L 257.182288 49.474165 
L 257.324369 49.655939 
L 257.46645 49.083503 
L 257.892693 93.526471 
L 258.74518 223.900322 
L 259.029343 242.307031 
L 259.171424 241.998698 
L 259.313505 242.271547 
L 259.455586 240.554591 
L 259.597667 241.295399 
L 259.881829 232.923989 
L 261.018477 207.355356 
L 261.160558 205.425878 
L 261.302639 199.213903 
L 261.444721 200.507033 
L 261.586802 198.221593 
L 261.728883 198.858693 
L 261.870964 194.495942 
L 262.013045 196.960542 
L 262.155126 194.075186 
L 262.297207 194.915375 
L 262.581369 189.068688 
L 262.865532 191.189863 
L 263.007613 186.13501 
L 263.149694 186.131613 
L 263.291775 181.598766 
L 263.575937 189.356727 
L 263.718019 188.698607 
L 264.144262 203.89816 
L 264.286343 213.411649 
L 264.428424 214.8091 
L 264.570505 224.196609 
L 264.712586 222.242549 
L 265.138829 234.500895 
L 265.28091 229.096197 
L 265.565072 231.477219 
L 265.707153 232.466981 
L 265.991315 229.822346 
L 266.133397 236.035023 
L 266.275478 228.137371 
L 266.417559 227.676467 
L 266.55964 226.260445 
L 266.843802 217.897953 
L 267.127964 216.202614 
L 267.270045 210.894921 
L 267.412127 215.302392 
L 267.554208 208.554152 
L 267.696289 212.208606 
L 267.83837 210.583827 
L 268.548776 229.153037 
L 268.690856 238.298527 
L 268.832937 240.123406 
L 268.975019 248.665124 
L 269.259181 251.289595 
L 269.543343 256.233684 
L 269.685424 253.471914 
L 269.827505 253.912147 
L 269.969586 257.606626 
L 270.111667 251.882342 
L 270.253748 251.712581 
L 270.39583 250.963181 
L 270.537911 247.596538 
L 270.679992 251.914282 
L 270.964154 245.92342 
L 271.248316 246.594469 
L 271.390397 246.02031 
L 271.532478 240.544211 
L 271.81664 241.023963 
L 271.958721 243.3275 
L 272.100803 236.023304 
L 272.242884 242.588578 
L 272.384965 237.95898 
L 272.527046 238.075568 
L 272.669127 234.818268 
L 272.811208 234.415161 
L 272.953289 233.630195 
L 273.09537 235.757944 
L 273.237451 234.062507 
L 273.379532 230.944024 
L 273.521613 232.357172 
L 273.663695 229.992369 
L 273.805776 229.83035 
L 273.947857 228.112062 
L 274.089938 232.145148 
L 274.232019 226.192327 
L 274.3741 233.891594 
L 274.516181 226.139301 
L 274.658262 226.999384 
L 274.800343 223.802338 
L 274.942424 225.235428 
L 275.084505 229.146267 
L 275.226586 224.239027 
L 275.368668 223.354624 
L 275.510749 227.007248 
L 275.65283 223.32818 
L 275.794911 223.477483 
L 275.936992 220.8009 
L 276.079073 224.522395 
L 276.221154 224.215752 
L 276.363235 221.501586 
L 276.505316 221.210737 
L 276.789478 219.288871 
L 276.93156 221.539414 
L 277.073641 217.443314 
L 277.215722 218.401903 
L 277.357803 217.796744 
L 277.499884 217.815094 
L 277.784046 215.987961 
L 277.926127 216.061608 
L 278.068208 217.278763 
L 278.210289 213.849008 
L 278.352371 217.60717 
L 278.636533 218.00234 
L 278.778614 213.010411 
L 278.920695 218.069568 
L 279.204857 211.888137 
L 279.346938 212.855832 
L 279.6311 216.41289 
L 279.773182 217.098908 
L 279.915263 211.279425 
L 280.057344 213.79594 
L 280.199425 210.850273 
L 280.341506 214.396363 
L 280.483587 214.697445 
L 280.767749 209.601644 
L 280.90983 213.296425 
L 281.051911 213.00369 
L 281.193992 208.565847 
L 281.478154 209.326982 
L 281.620235 213.655008 
L 281.762316 209.223314 
L 281.904397 209.673935 
L 282.046479 207.821698 
L 282.18856 210.981112 
L 282.330641 210.589176 
L 282.472722 208.743946 
L 282.756884 209.94137 
L 282.898965 205.411104 
L 283.183128 209.770237 
L 283.325209 210.496778 
L 283.609371 206.490969 
L 283.751452 206.539169 
L 283.893533 204.806516 
L 284.035614 206.372421 
L 284.177695 205.404857 
L 284.319776 206.661522 
L 284.461857 209.521463 
L 284.603938 206.488078 
L 284.746019 206.598737 
L 284.8881 207.192006 
L 285.030181 207.044997 
L 285.314343 205.962331 
L 285.456426 203.800764 
L 285.598507 204.355862 
L 285.740588 208.036629 
L 285.882669 205.577019 
L 286.02475 205.910268 
L 286.308912 204.39035 
L 286.450993 207.087317 
L 286.735155 201.326519 
L 286.877236 206.969014 
L 287.161398 203.217475 
L 287.303479 204.736176 
L 287.44556 204.850812 
L 287.587641 202.997897 
L 287.729722 203.232085 
L 287.871803 203.206311 
L 288.013885 201.017998 
L 288.155966 201.713587 
L 288.298047 199.999522 
L 288.440128 200.953955 
L 288.582209 203.094019 
L 288.866371 200.488666 
L 289.008452 202.623642 
L 289.150533 202.262511 
L 289.434695 199.798107 
L 289.718857 201.815769 
L 289.860938 197.924163 
L 290.00302 201.40612 
L 290.429264 198.660683 
L 290.571345 199.73506 
L 290.713426 199.247779 
L 290.855507 199.214695 
L 290.997588 204.69117 
L 291.139669 199.040051 
L 291.28175 200.257508 
L 291.423831 197.696459 
L 291.565912 200.561839 
L 291.707993 199.597517 
L 291.850074 199.421933 
L 291.992155 202.004942 
L 292.134236 198.830159 
L 292.276317 198.886427 
L 292.418398 195.645297 
L 292.70256 199.872252 
L 292.844642 199.777184 
L 292.986723 197.777979 
L 293.128804 198.57606 
L 293.412966 196.115862 
L 293.697128 199.513229 
L 293.839209 194.541316 
L 294.123371 198.298932 
L 294.265452 197.29006 
L 294.549614 198.102343 
L 294.691695 198.780195 
L 294.833776 198.882148 
L 294.975857 196.591939 
L 295.117938 200.174453 
L 295.260019 196.731393 
L 295.402101 199.576243 
L 295.828344 194.034288 
L 295.970425 199.617934 
L 296.112506 200.611419 
L 296.254587 195.00369 
L 296.396668 196.17231 
L 296.68083 196.45705 
L 296.964994 199.193552 
L 297.107075 194.702984 
L 297.533319 197.490446 
L 297.6754 195.998605 
L 297.817481 192.465565 
L 297.959562 193.220608 
L 298.101643 194.971709 
L 298.243724 191.253898 
L 298.385805 196.092097 
L 298.527886 196.03618 
L 298.669967 195.141029 
L 298.812048 192.298842 
L 298.954129 193.223801 
L 299.09621 192.311721 
L 299.238291 196.316191 
L 299.380372 195.749856 
L 299.522453 193.788144 
L 299.806615 194.031152 
L 299.948697 196.557255 
L 300.090778 196.504539 
L 300.232859 195.977641 
L 300.37494 191.349391 
L 300.659102 197.173905 
L 300.801183 192.512638 
L 300.943264 197.364998 
L 301.227426 195.230536 
L 301.369507 198.645747 
L 301.511588 192.837631 
L 301.653669 195.570515 
L 301.79575 192.88009 
L 301.937831 192.433927 
L 302.221993 194.270746 
L 302.364074 194.364083 
L 302.506156 192.758463 
L 302.648237 193.200738 
L 302.790318 194.732041 
L 302.932399 192.070746 
L 303.07448 193.629032 
L 303.216561 192.43329 
L 303.358642 190.009254 
L 303.500723 191.836117 
L 303.642804 190.500268 
L 303.784885 191.141043 
L 303.926966 194.325316 
L 304.069047 194.027068 
L 304.211128 196.130341 
L 304.353209 193.348033 
L 304.49529 193.113681 
L 304.637371 191.286565 
L 304.779452 192.568326 
L 304.921533 190.451317 
L 305.063615 192.033719 
L 305.205696 195.276898 
L 305.347777 189.056544 
L 305.489858 189.548849 
L 305.631939 190.961375 
L 305.916103 189.266755 
L 306.058184 193.743807 
L 306.200265 190.718898 
L 306.484427 192.990299 
L 306.768589 191.047852 
L 307.052751 194.902211 
L 307.336914 188.820437 
L 307.478995 195.153434 
L 307.763157 190.971535 
L 307.905238 194.079539 
L 308.047319 189.960825 
L 308.1894 194.082161 
L 308.331481 190.218599 
L 308.473562 192.126794 
L 308.615643 191.989129 
L 308.757724 193.129272 
L 308.899805 193.252442 
L 309.041886 190.061913 
L 309.183967 193.414322 
L 309.326048 192.476525 
L 309.468129 187.544842 
L 309.61021 188.652244 
L 309.752292 191.682086 
L 309.894373 189.230397 
L 310.036454 192.605975 
L 310.178535 191.789992 
L 310.320616 191.949545 
L 310.462697 189.139918 
L 310.746859 192.261047 
L 310.88894 191.458571 
L 311.031021 188.709223 
L 311.315183 190.90701 
L 311.457264 186.191385 
L 311.599345 189.608882 
L 311.741426 189.672525 
L 311.883507 188.179785 
L 312.025588 189.414695 
L 312.167669 189.667895 
L 312.309751 190.233699 
L 312.593913 187.00228 
L 312.878075 191.240317 
L 313.020156 188.559005 
L 313.162237 187.993095 
L 313.304318 189.431036 
L 313.446399 187.69568 
L 313.58848 187.949305 
L 313.730561 191.715953 
L 313.872642 188.623155 
L 314.014723 188.070017 
L 314.156804 192.603288 
L 314.298885 187.277619 
L 314.440966 192.009504 
L 314.725129 185.627426 
L 315.009291 188.117947 
L 315.151372 187.854408 
L 315.435534 190.255422 
L 315.577615 188.403389 
L 315.719696 192.910339 
L 315.861777 189.814446 
L 316.003858 191.251325 
L 316.145939 190.152726 
L 316.28802 189.929874 
L 316.430101 187.445763 
L 316.572182 192.674959 
L 316.714263 191.703629 
L 316.856344 189.94771 
L 316.998425 184.922567 
L 317.140506 184.738956 
L 317.56675 190.881326 
L 317.708831 186.784286 
L 317.850912 188.903664 
L 317.992993 187.095886 
L 318.135074 186.926133 
L 318.277155 188.237475 
L 318.419236 191.40664 
L 318.703398 187.049507 
L 318.845479 187.888463 
L 318.98756 190.552012 
L 319.129641 187.197431 
L 319.271722 186.955411 
L 319.413803 189.291835 
L 319.555889 187.54494 
L 319.69797 188.435876 
L 319.982132 186.684742 
L 320.124213 189.612435 
L 320.408375 183.440036 
L 320.550456 187.580465 
L 320.692537 187.746591 
L 320.834618 185.577911 
L 320.976699 188.694025 
L 321.11878 187.950587 
L 321.260861 189.511159 
L 321.402942 184.379817 
L 321.545024 186.112511 
L 321.687105 191.026709 
L 321.829186 185.938029 
L 321.971267 185.870025 
L 322.113348 184.925997 
L 322.255429 188.372699 
L 322.39751 186.934088 
L 322.539591 188.562517 
L 322.681672 187.730299 
L 322.823753 189.238008 
L 322.965834 185.169054 
L 323.107915 187.402676 
L 323.249996 186.758978 
L 323.392077 186.723085 
L 323.534158 188.188899 
L 323.676239 187.986537 
L 323.81832 189.248127 
L 324.102483 183.660136 
L 324.244564 188.950998 
L 324.386645 184.359899 
L 324.528726 188.162831 
L 324.670807 185.651403 
L 324.954969 189.357642 
L 325.239131 185.988483 
L 325.381212 190.648232 
L 325.523293 186.42625 
L 325.665374 189.374196 
L 325.807455 189.774225 
L 325.949536 187.484473 
L 326.233698 188.859629 
L 326.375779 185.34031 
L 326.517861 187.739682 
L 326.659942 186.425009 
L 326.802023 187.12157 
L 326.944104 184.981139 
L 327.086185 184.868651 
L 327.228266 188.971848 
L 327.370347 186.810632 
L 327.512428 189.43908 
L 327.938671 183.793033 
L 328.080752 187.344496 
L 328.222833 185.429335 
L 328.364914 185.988475 
L 328.506995 188.731412 
L 328.791157 184.942788 
L 328.933238 186.401791 
L 329.07532 189.027487 
L 329.359482 182.246932 
L 329.501563 186.610066 
L 329.643644 184.929468 
L 329.785725 186.347597 
L 329.927806 188.991529 
L 330.069887 187.515883 
L 330.211968 188.313147 
L 330.354049 188.159344 
L 330.49613 184.064363 
L 330.638211 187.190791 
L 330.922373 183.95519 
L 331.206535 188.16551 
L 331.348616 183.677735 
L 331.490697 182.885248 
L 331.632779 185.92288 
L 331.77486 186.020538 
L 331.916941 187.187582 
L 332.059022 187.01208 
L 332.201103 183.699859 
L 332.343184 185.567058 
L 332.485265 185.262187 
L 332.627346 186.677254 
L 332.911508 183.637229 
L 333.19567 186.053711 
L 333.337751 185.62001 
L 333.479832 184.538806 
L 333.621913 185.11544 
L 333.763994 183.52136 
L 333.906075 186.446251 
L 334.048156 184.153641 
L 334.190238 187.869231 
L 334.332319 182.361461 
L 334.4744 183.922401 
L 334.616481 182.3359 
L 335.042724 189.093221 
L 335.326886 179.94591 
L 335.468967 185.228434 
L 335.611048 183.764882 
L 335.753129 183.515855 
L 335.89521 184.061847 
L 336.037291 183.379855 
L 336.179372 188.3114 
L 336.321453 181.538512 
L 336.605615 186.836177 
L 336.747697 182.745353 
L 336.889778 185.722625 
L 337.316021 186.600234 
L 337.458102 184.008617 
L 337.600183 183.603541 
L 337.742268 185.939303 
L 337.884349 182.628504 
L 338.02643 184.593727 
L 338.168511 182.931398 
L 338.310593 185.787722 
L 338.452674 184.38546 
L 338.594755 184.473481 
L 338.736836 186.267114 
L 338.878917 185.744928 
L 339.020998 183.160588 
L 339.163079 184.689204 
L 339.30516 182.318047 
L 339.447241 182.497216 
L 339.589322 180.140735 
L 339.731403 186.301235 
L 339.873484 186.586816 
L 340.015565 180.179306 
L 340.157646 188.673265 
L 340.299727 183.464601 
L 340.583889 187.179807 
L 340.868052 182.452553 
L 341.010133 183.247016 
L 341.294295 186.660879 
L 341.436376 183.627943 
L 341.578457 186.716935 
L 341.720538 181.984266 
L 341.862619 181.88046 
L 342.0047 182.860609 
L 342.430943 188.441552 
L 342.573024 183.462249 
L 342.715105 185.141606 
L 342.857186 184.136744 
L 342.999267 185.281371 
L 343.283429 183.34148 
L 343.425511 186.978106 
L 343.567592 183.794919 
L 343.709673 183.326315 
L 343.851754 182.199451 
L 343.993835 182.93785 
L 344.135916 181.646288 
L 344.277997 186.074985 
L 344.420078 180.915206 
L 344.70424 187.362349 
L 344.988402 179.74835 
L 345.130483 183.76449 
L 345.272564 181.746706 
L 345.414645 183.69317 
L 345.698807 180.400133 
L 345.98297 183.898089 
L 346.125051 184.493261 
L 346.267132 183.821085 
L 346.409213 185.576082 
L 346.551294 182.913668 
L 346.835456 184.457188 
L 346.977537 183.015466 
L 347.261699 185.498694 
L 347.40378 182.399967 
L 347.545861 185.334699 
L 347.830023 181.907614 
L 348.114185 184.975046 
L 348.256266 183.881437 
L 348.398347 181.384889 
L 348.68251 186.090028 
L 348.824591 181.678849 
L 348.966672 181.562204 
L 349.108753 185.551263 
L 349.250834 183.267964 
L 349.392915 183.047594 
L 349.534996 181.871705 
L 349.677077 181.798531 
L 349.819158 184.443395 
L 349.961239 180.658397 
L 350.10332 184.875266 
L 350.245401 181.664753 
L 350.387482 182.042258 
L 350.529563 179.734761 
L 350.671644 183.599711 
L 350.813725 184.428809 
L 350.955807 183.492662 
L 351.239969 187.210832 
L 351.38205 181.573417 
L 351.524131 185.631697 
L 351.666212 182.244016 
L 351.950374 187.080892 
L 352.092455 186.240213 
L 352.234536 186.801551 
L 352.376617 181.505143 
L 352.518698 182.851895 
L 352.660779 181.605365 
L 352.80286 183.942001 
L 352.944941 181.143963 
L 353.087022 182.508323 
L 353.229103 180.696461 
L 353.371184 181.497687 
L 353.513266 185.429245 
L 353.655347 183.14601 
L 353.939509 185.869903 
L 354.08159 182.675903 
L 354.223671 183.60929 
L 354.365752 180.065389 
L 354.507833 182.51867 
L 354.649914 181.000254 
L 354.791995 183.891915 
L 354.934076 179.150116 
L 355.076157 182.341771 
L 355.218238 180.636093 
L 355.360319 181.497507 
L 355.5024 183.19136 
L 355.644481 179.931586 
L 355.786562 182.229479 
L 356.070725 178.953307 
L 356.212806 187.044142 
L 356.354887 179.11918 
L 356.639049 182.86729 
L 356.78113 183.65397 
L 357.207373 182.188287 
L 357.491535 183.639164 
L 357.633616 183.773057 
L 357.917778 180.819942 
L 358.059859 180.008304 
L 358.20194 183.157762 
L 358.486102 179.770041 
L 358.628184 182.535199 
L 358.770265 181.018801 
L 358.912346 183.257535 
L 359.054427 180.868623 
L 359.196508 182.295915 
L 359.338589 185.942799 
L 359.48067 183.718512 
L 359.622751 183.872903 
L 359.764832 182.955923 
L 359.906913 183.394653 
L 360.048994 182.077849 
L 360.191075 186.399014 
L 360.333156 181.631433 
L 360.475237 181.306995 
L 360.617318 183.001885 
L 360.759399 181.356681 
L 360.90148 184.284839 
L 361.043561 181.354378 
L 361.327724 183.358222 
L 361.469805 180.912846 
L 361.753967 182.952705 
L 361.896048 177.559947 
L 362.038129 185.390249 
L 362.18021 177.887341 
L 362.322291 184.497344 
L 362.464372 181.979791 
L 362.606453 186.399219 
L 362.890615 183.316253 
L 363.032696 183.78596 
L 363.174777 178.865204 
L 363.316858 178.033109 
L 363.458939 185.427146 
L 363.601021 181.125997 
L 363.743102 180.247416 
L 364.027264 182.745655 
L 364.169345 182.245306 
L 364.453507 183.640708 
L 364.737669 180.810485 
L 364.87975 182.213603 
L 365.02184 186.916243 
L 365.163921 183.226044 
L 365.306002 184.142796 
L 365.448083 179.016329 
L 365.590164 182.137057 
L 365.732245 180.578633 
L 365.874326 180.842858 
L 366.158488 184.692332 
L 366.44265 181.931469 
L 366.584731 184.113583 
L 366.726812 183.907072 
L 366.868893 181.610877 
L 367.153056 182.118674 
L 367.579299 181.276419 
L 367.72138 181.042647 
L 367.863461 182.378954 
L 368.005542 177.979968 
L 368.147623 184.403623 
L 368.289704 179.247062 
L 368.431785 184.103612 
L 368.573866 181.733312 
L 368.715947 182.529532 
L 368.858028 180.029341 
L 369.000109 183.526946 
L 369.14219 182.701645 
L 369.284271 182.900169 
L 369.426352 182.269227 
L 369.568434 182.974224 
L 369.710515 179.385782 
L 369.852596 181.198623 
L 369.994677 185.164097 
L 370.136758 181.764991 
L 370.278839 181.679902 
L 370.563001 181.887924 
L 370.705082 182.457616 
L 370.847163 180.275599 
L 371.131325 183.105398 
L 371.273406 180.288666 
L 371.415487 180.980532 
L 371.557568 178.743031 
L 371.84173 182.739563 
L 371.983811 179.407962 
L 372.125893 179.163419 
L 372.267974 180.135279 
L 372.410055 183.051359 
L 372.552136 181.606296 
L 372.694217 178.723071 
L 372.836298 182.850483 
L 372.978379 180.713448 
L 373.262541 185.062038 
L 373.404622 181.971837 
L 373.546703 185.741784 
L 373.688784 180.841551 
L 374.115027 181.319498 
L 374.257108 183.586767 
L 374.399189 182.145893 
L 374.54127 183.371591 
L 374.683352 180.237322 
L 374.967514 183.905382 
L 375.251676 181.664475 
L 375.393757 181.737624 
L 375.535838 181.578978 
L 375.677919 180.629029 
L 375.82 180.972512 
L 375.82 180.972512 
" style="fill:none;stroke:#1f77b4;stroke-linecap:square;stroke-width:1.5;"/>
   </g>
   <g id="patch_3">
    <path d="M 84.98 317.72 
L 84.98 26.88 
" style="fill:none;stroke:#000000;stroke-linecap:square;stroke-linejoin:miter;stroke-width:0.8;"/>
   </g>
   <g id="patch_4">
    <path d="M 375.82 317.72 
L 375.82 26.88 
" style="fill:none;stroke:#000000;stroke-linecap:square;stroke-linejoin:miter;stroke-width:0.8;"/>
   </g>
   <g id="patch_5">
    <path d="M 84.98 317.72 
L 375.82 317.72 
" style="fill:none;stroke:#000000;stroke-linecap:square;stroke-linejoin:miter;stroke-width:0.8;"/>
   </g>
   <g id="patch_6">
    <path d="M 84.98 26.88 
L 375.82 26.88 
" style="fill:none;stroke:#000000;stroke-linecap:square;stroke-linejoin:miter;stroke-width:0.8;"/>
   </g>
   <g id="text_17">
    <!-- Original Signal vs Signal from Sampled Parameters -->
    <defs>
     <path d="M 39.40625 66.21875 
Q 28.65625 66.21875 22.328125 58.203125 
Q 16.015625 50.203125 16.015625 36.375 
Q 16.015625 22.609375 22.328125 14.59375 
Q 28.65625 6.59375 39.40625 6.59375 
Q 50.140625 6.59375 56.421875 14.59375 
Q 62.703125 22.609375 62.703125 36.375 
Q 62.703125 50.203125 56.421875 58.203125 
Q 50.140625 66.21875 39.40625 66.21875 
z
M 39.40625 74.21875 
Q 54.734375 74.21875 63.90625 63.9375 
Q 73.09375 53.65625 73.09375 36.375 
Q 73.09375 19.140625 63.90625 8.859375 
Q 54.734375 -1.421875 39.40625 -1.421875 
Q 24.03125 -1.421875 14.8125 8.828125 
Q 5.609375 19.09375 5.609375 36.375 
Q 5.609375 53.65625 14.8125 63.9375 
Q 24.03125 74.21875 39.40625 74.21875 
z
" id="DejaVuSans-79"/>
     <path d="M 41.109375 46.296875 
Q 39.59375 47.171875 37.8125 47.578125 
Q 36.03125 48 33.890625 48 
Q 26.265625 48 22.1875 43.046875 
Q 18.109375 38.09375 18.109375 28.8125 
L 18.109375 0 
L 9.078125 0 
L 9.078125 54.6875 
L 18.109375 54.6875 
L 18.109375 46.1875 
Q 20.953125 51.171875 25.484375 53.578125 
Q 30.03125 56 36.53125 56 
Q 37.453125 56 38.578125 55.875 
Q 39.703125 55.765625 41.0625 55.515625 
z
" id="DejaVuSans-114"/>
     <path d="M 9.421875 54.6875 
L 18.40625 54.6875 
L 18.40625 0 
L 9.421875 0 
z
M 9.421875 75.984375 
L 18.40625 75.984375 
L 18.40625 64.59375 
L 9.421875 64.59375 
z
" id="DejaVuSans-105"/>
     <path d="M 45.40625 27.984375 
Q 45.40625 37.75 41.375 43.109375 
Q 37.359375 48.484375 30.078125 48.484375 
Q 22.859375 48.484375 18.828125 43.109375 
Q 14.796875 37.75 14.796875 27.984375 
Q 14.796875 18.265625 18.828125 12.890625 
Q 22.859375 7.515625 30.078125 7.515625 
Q 37.359375 7.515625 41.375 12.890625 
Q 45.40625 18.265625 45.40625 27.984375 
z
M 54.390625 6.78125 
Q 54.390625 -7.171875 48.1875 -13.984375 
Q 42 -20.796875 29.203125 -20.796875 
Q 24.46875 -20.796875 20.265625 -20.09375 
Q 16.0625 -19.390625 12.109375 -17.921875 
L 12.109375 -9.1875 
Q 16.0625 -11.328125 19.921875 -12.34375 
Q 23.78125 -13.375 27.78125 -13.375 
Q 36.625 -13.375 41.015625 -8.765625 
Q 45.40625 -4.15625 45.40625 5.171875 
L 45.40625 9.625 
Q 42.625 4.78125 38.28125 2.390625 
Q 33.9375 0 27.875 0 
Q 17.828125 0 11.671875 7.65625 
Q 5.515625 15.328125 5.515625 27.984375 
Q 5.515625 40.671875 11.671875 48.328125 
Q 17.828125 56 27.875 56 
Q 33.9375 56 38.28125 53.609375 
Q 42.625 51.21875 45.40625 46.390625 
L 45.40625 54.6875 
L 54.390625 54.6875 
z
" id="DejaVuSans-103"/>
     <path d="M 54.890625 33.015625 
L 54.890625 0 
L 45.90625 0 
L 45.90625 32.71875 
Q 45.90625 40.484375 42.875 44.328125 
Q 39.84375 48.1875 33.796875 48.1875 
Q 26.515625 48.1875 22.3125 43.546875 
Q 18.109375 38.921875 18.109375 30.90625 
L 18.109375 0 
L 9.078125 0 
L 9.078125 54.6875 
L 18.109375 54.6875 
L 18.109375 46.1875 
Q 21.34375 51.125 25.703125 53.5625 
Q 30.078125 56 35.796875 56 
Q 45.21875 56 50.046875 50.171875 
Q 54.890625 44.34375 54.890625 33.015625 
z
" id="DejaVuSans-110"/>
     <path d="M 34.28125 27.484375 
Q 23.390625 27.484375 19.1875 25 
Q 14.984375 22.515625 14.984375 16.5 
Q 14.984375 11.71875 18.140625 8.90625 
Q 21.296875 6.109375 26.703125 6.109375 
Q 34.1875 6.109375 38.703125 11.40625 
Q 43.21875 16.703125 43.21875 25.484375 
L 43.21875 27.484375 
z
M 52.203125 31.203125 
L 52.203125 0 
L 43.21875 0 
L 43.21875 8.296875 
Q 40.140625 3.328125 35.546875 0.953125 
Q 30.953125 -1.421875 24.3125 -1.421875 
Q 15.921875 -1.421875 10.953125 3.296875 
Q 6 8.015625 6 15.921875 
Q 6 25.140625 12.171875 29.828125 
Q 18.359375 34.515625 30.609375 34.515625 
L 43.21875 34.515625 
L 43.21875 35.40625 
Q 43.21875 41.609375 39.140625 45 
Q 35.0625 48.390625 27.6875 48.390625 
Q 23 48.390625 18.546875 47.265625 
Q 14.109375 46.140625 10.015625 43.890625 
L 10.015625 52.203125 
Q 14.9375 54.109375 19.578125 55.046875 
Q 24.21875 56 28.609375 56 
Q 40.484375 56 46.34375 49.84375 
Q 52.203125 43.703125 52.203125 31.203125 
z
" id="DejaVuSans-97"/>
     <path d="M 9.421875 75.984375 
L 18.40625 75.984375 
L 18.40625 0 
L 9.421875 0 
z
" id="DejaVuSans-108"/>
     <path id="DejaVuSans-32"/>
     <path d="M 53.515625 70.515625 
L 53.515625 60.890625 
Q 47.90625 63.578125 42.921875 64.890625 
Q 37.9375 66.21875 33.296875 66.21875 
Q 25.25 66.21875 20.875 63.09375 
Q 16.5 59.96875 16.5 54.203125 
Q 16.5 49.359375 19.40625 46.890625 
Q 22.3125 44.4375 30.421875 42.921875 
L 36.375 41.703125 
Q 47.40625 39.59375 52.65625 34.296875 
Q 57.90625 29 57.90625 20.125 
Q 57.90625 9.515625 50.796875 4.046875 
Q 43.703125 -1.421875 29.984375 -1.421875 
Q 24.8125 -1.421875 18.96875 -0.25 
Q 13.140625 0.921875 6.890625 3.21875 
L 6.890625 13.375 
Q 12.890625 10.015625 18.65625 8.296875 
Q 24.421875 6.59375 29.984375 6.59375 
Q 38.421875 6.59375 43.015625 9.90625 
Q 47.609375 13.234375 47.609375 19.390625 
Q 47.609375 24.75 44.3125 27.78125 
Q 41.015625 30.8125 33.5 32.328125 
L 27.484375 33.5 
Q 16.453125 35.6875 11.515625 40.375 
Q 6.59375 45.0625 6.59375 53.421875 
Q 6.59375 63.09375 13.40625 68.65625 
Q 20.21875 74.21875 32.171875 74.21875 
Q 37.3125 74.21875 42.625 73.28125 
Q 47.953125 72.359375 53.515625 70.515625 
z
" id="DejaVuSans-83"/>
     <path d="M 2.984375 54.6875 
L 12.5 54.6875 
L 29.59375 8.796875 
L 46.6875 54.6875 
L 56.203125 54.6875 
L 35.6875 0 
L 23.484375 0 
z
" id="DejaVuSans-118"/>
     <path d="M 44.28125 53.078125 
L 44.28125 44.578125 
Q 40.484375 46.53125 36.375 47.5 
Q 32.28125 48.484375 27.875 48.484375 
Q 21.1875 48.484375 17.84375 46.4375 
Q 14.5 44.390625 14.5 40.28125 
Q 14.5 37.15625 16.890625 35.375 
Q 19.28125 33.59375 26.515625 31.984375 
L 29.59375 31.296875 
Q 39.15625 29.25 43.1875 25.515625 
Q 47.21875 21.78125 47.21875 15.09375 
Q 47.21875 7.46875 41.1875 3.015625 
Q 35.15625 -1.421875 24.609375 -1.421875 
Q 20.21875 -1.421875 15.453125 -0.5625 
Q 10.6875 0.296875 5.421875 2 
L 5.421875 11.28125 
Q 10.40625 8.6875 15.234375 7.390625 
Q 20.0625 6.109375 24.8125 6.109375 
Q 31.15625 6.109375 34.5625 8.28125 
Q 37.984375 10.453125 37.984375 14.40625 
Q 37.984375 18.0625 35.515625 20.015625 
Q 33.0625 21.96875 24.703125 23.78125 
L 21.578125 24.515625 
Q 13.234375 26.265625 9.515625 29.90625 
Q 5.8125 33.546875 5.8125 39.890625 
Q 5.8125 47.609375 11.28125 51.796875 
Q 16.75 56 26.8125 56 
Q 31.78125 56 36.171875 55.265625 
Q 40.578125 54.546875 44.28125 53.078125 
z
" id="DejaVuSans-115"/>
     <path d="M 37.109375 75.984375 
L 37.109375 68.5 
L 28.515625 68.5 
Q 23.6875 68.5 21.796875 66.546875 
Q 19.921875 64.59375 19.921875 59.515625 
L 19.921875 54.6875 
L 34.71875 54.6875 
L 34.71875 47.703125 
L 19.921875 47.703125 
L 19.921875 0 
L 10.890625 0 
L 10.890625 47.703125 
L 2.296875 47.703125 
L 2.296875 54.6875 
L 10.890625 54.6875 
L 10.890625 58.5 
Q 10.890625 67.625 15.140625 71.796875 
Q 19.390625 75.984375 28.609375 75.984375 
z
" id="DejaVuSans-102"/>
     <path d="M 30.609375 48.390625 
Q 23.390625 48.390625 19.1875 42.75 
Q 14.984375 37.109375 14.984375 27.296875 
Q 14.984375 17.484375 19.15625 11.84375 
Q 23.34375 6.203125 30.609375 6.203125 
Q 37.796875 6.203125 41.984375 11.859375 
Q 46.1875 17.53125 46.1875 27.296875 
Q 46.1875 37.015625 41.984375 42.703125 
Q 37.796875 48.390625 30.609375 48.390625 
z
M 30.609375 56 
Q 42.328125 56 49.015625 48.375 
Q 55.71875 40.765625 55.71875 27.296875 
Q 55.71875 13.875 49.015625 6.21875 
Q 42.328125 -1.421875 30.609375 -1.421875 
Q 18.84375 -1.421875 12.171875 6.21875 
Q 5.515625 13.875 5.515625 27.296875 
Q 5.515625 40.765625 12.171875 48.375 
Q 18.84375 56 30.609375 56 
z
" id="DejaVuSans-111"/>
     <path d="M 52 44.1875 
Q 55.375 50.25 60.0625 53.125 
Q 64.75 56 71.09375 56 
Q 79.640625 56 84.28125 50.015625 
Q 88.921875 44.046875 88.921875 33.015625 
L 88.921875 0 
L 79.890625 0 
L 79.890625 32.71875 
Q 79.890625 40.578125 77.09375 44.375 
Q 74.3125 48.1875 68.609375 48.1875 
Q 61.625 48.1875 57.5625 43.546875 
Q 53.515625 38.921875 53.515625 30.90625 
L 53.515625 0 
L 44.484375 0 
L 44.484375 32.71875 
Q 44.484375 40.625 41.703125 44.40625 
Q 38.921875 48.1875 33.109375 48.1875 
Q 26.21875 48.1875 22.15625 43.53125 
Q 18.109375 38.875 18.109375 30.90625 
L 18.109375 0 
L 9.078125 0 
L 9.078125 54.6875 
L 18.109375 54.6875 
L 18.109375 46.1875 
Q 21.1875 51.21875 25.484375 53.609375 
Q 29.78125 56 35.6875 56 
Q 41.65625 56 45.828125 52.96875 
Q 50 49.953125 52 44.1875 
z
" id="DejaVuSans-109"/>
     <path d="M 18.109375 8.203125 
L 18.109375 -20.796875 
L 9.078125 -20.796875 
L 9.078125 54.6875 
L 18.109375 54.6875 
L 18.109375 46.390625 
Q 20.953125 51.265625 25.265625 53.625 
Q 29.59375 56 35.59375 56 
Q 45.5625 56 51.78125 48.09375 
Q 58.015625 40.1875 58.015625 27.296875 
Q 58.015625 14.40625 51.78125 6.484375 
Q 45.5625 -1.421875 35.59375 -1.421875 
Q 29.59375 -1.421875 25.265625 0.953125 
Q 20.953125 3.328125 18.109375 8.203125 
z
M 48.6875 27.296875 
Q 48.6875 37.203125 44.609375 42.84375 
Q 40.53125 48.484375 33.40625 48.484375 
Q 26.265625 48.484375 22.1875 42.84375 
Q 18.109375 37.203125 18.109375 27.296875 
Q 18.109375 17.390625 22.1875 11.75 
Q 26.265625 6.109375 33.40625 6.109375 
Q 40.53125 6.109375 44.609375 11.75 
Q 48.6875 17.390625 48.6875 27.296875 
z
" id="DejaVuSans-112"/>
     <path d="M 56.203125 29.59375 
L 56.203125 25.203125 
L 14.890625 25.203125 
Q 15.484375 15.921875 20.484375 11.0625 
Q 25.484375 6.203125 34.421875 6.203125 
Q 39.59375 6.203125 44.453125 7.46875 
Q 49.3125 8.734375 54.109375 11.28125 
L 54.109375 2.78125 
Q 49.265625 0.734375 44.1875 -0.34375 
Q 39.109375 -1.421875 33.890625 -1.421875 
Q 20.796875 -1.421875 13.15625 6.1875 
Q 5.515625 13.8125 5.515625 26.8125 
Q 5.515625 40.234375 12.765625 48.109375 
Q 20.015625 56 32.328125 56 
Q 43.359375 56 49.78125 48.890625 
Q 56.203125 41.796875 56.203125 29.59375 
z
M 47.21875 32.234375 
Q 47.125 39.59375 43.09375 43.984375 
Q 39.0625 48.390625 32.421875 48.390625 
Q 24.90625 48.390625 20.390625 44.140625 
Q 15.875 39.890625 15.1875 32.171875 
z
" id="DejaVuSans-101"/>
     <path d="M 45.40625 46.390625 
L 45.40625 75.984375 
L 54.390625 75.984375 
L 54.390625 0 
L 45.40625 0 
L 45.40625 8.203125 
Q 42.578125 3.328125 38.25 0.953125 
Q 33.9375 -1.421875 27.875 -1.421875 
Q 17.96875 -1.421875 11.734375 6.484375 
Q 5.515625 14.40625 5.515625 27.296875 
Q 5.515625 40.1875 11.734375 48.09375 
Q 17.96875 56 27.875 56 
Q 33.9375 56 38.25 53.625 
Q 42.578125 51.265625 45.40625 46.390625 
z
M 14.796875 27.296875 
Q 14.796875 17.390625 18.875 11.75 
Q 22.953125 6.109375 30.078125 6.109375 
Q 37.203125 6.109375 41.296875 11.75 
Q 45.40625 17.390625 45.40625 27.296875 
Q 45.40625 37.203125 41.296875 42.84375 
Q 37.203125 48.484375 30.078125 48.484375 
Q 22.953125 48.484375 18.875 42.84375 
Q 14.796875 37.203125 14.796875 27.296875 
z
" id="DejaVuSans-100"/>
     <path d="M 19.671875 64.796875 
L 19.671875 37.40625 
L 32.078125 37.40625 
Q 38.96875 37.40625 42.71875 40.96875 
Q 46.484375 44.53125 46.484375 51.125 
Q 46.484375 57.671875 42.71875 61.234375 
Q 38.96875 64.796875 32.078125 64.796875 
z
M 9.8125 72.90625 
L 32.078125 72.90625 
Q 44.34375 72.90625 50.609375 67.359375 
Q 56.890625 61.8125 56.890625 51.125 
Q 56.890625 40.328125 50.609375 34.8125 
Q 44.34375 29.296875 32.078125 29.296875 
L 19.671875 29.296875 
L 19.671875 0 
L 9.8125 0 
z
" id="DejaVuSans-80"/>
     <path d="M 18.3125 70.21875 
L 18.3125 54.6875 
L 36.8125 54.6875 
L 36.8125 47.703125 
L 18.3125 47.703125 
L 18.3125 18.015625 
Q 18.3125 11.328125 20.140625 9.421875 
Q 21.96875 7.515625 27.59375 7.515625 
L 36.8125 7.515625 
L 36.8125 0 
L 27.59375 0 
Q 17.1875 0 13.234375 3.875 
Q 9.28125 7.765625 9.28125 18.015625 
L 9.28125 47.703125 
L 2.6875 47.703125 
L 2.6875 54.6875 
L 9.28125 54.6875 
L 9.28125 70.21875 
z
" id="DejaVuSans-116"/>
    </defs>
    <g transform="translate(76.934063 20.88)scale(0.12 -0.12)">
     <use xlink:href="#DejaVuSans-79"/>
     <use x="78.710938" xlink:href="#DejaVuSans-114"/>
     <use x="119.824219" xlink:href="#DejaVuSans-105"/>
     <use x="147.607422" xlink:href="#DejaVuSans-103"/>
     <use x="211.083984" xlink:href="#DejaVuSans-105"/>
     <use x="238.867188" xlink:href="#DejaVuSans-110"/>
     <use x="302.246094" xlink:href="#DejaVuSans-97"/>
     <use x="363.525391" xlink:href="#DejaVuSans-108"/>
     <use x="391.308594" xlink:href="#DejaVuSans-32"/>
     <use x="423.095703" xlink:href="#DejaVuSans-83"/>
     <use x="486.572266" xlink:href="#DejaVuSans-105"/>
     <use x="514.355469" xlink:href="#DejaVuSans-103"/>
     <use x="577.832031" xlink:href="#DejaVuSans-110"/>
     <use x="641.210938" xlink:href="#DejaVuSans-97"/>
     <use x="702.490234" xlink:href="#DejaVuSans-108"/>
     <use x="730.273438" xlink:href="#DejaVuSans-32"/>
     <use x="762.060547" xlink:href="#DejaVuSans-118"/>
     <use x="821.240234" xlink:href="#DejaVuSans-115"/>
     <use x="873.339844" xlink:href="#DejaVuSans-32"/>
     <use x="905.126953" xlink:href="#DejaVuSans-83"/>
     <use x="968.603516" xlink:href="#DejaVuSans-105"/>
     <use x="996.386719" xlink:href="#DejaVuSans-103"/>
     <use x="1059.863281" xlink:href="#DejaVuSans-110"/>
     <use x="1123.242188" xlink:href="#DejaVuSans-97"/>
     <use x="1184.521484" xlink:href="#DejaVuSans-108"/>
     <use x="1212.304688" xlink:href="#DejaVuSans-32"/>
     <use x="1244.091797" xlink:href="#DejaVuSans-102"/>
     <use x="1279.296875" xlink:href="#DejaVuSans-114"/>
     <use x="1320.378906" xlink:href="#DejaVuSans-111"/>
     <use x="1381.560547" xlink:href="#DejaVuSans-109"/>
     <use x="1478.972656" xlink:href="#DejaVuSans-32"/>
     <use x="1510.759766" xlink:href="#DejaVuSans-83"/>
     <use x="1574.236328" xlink:href="#DejaVuSans-97"/>
     <use x="1635.515625" xlink:href="#DejaVuSans-109"/>
     <use x="1732.927734" xlink:href="#DejaVuSans-112"/>
     <use x="1796.404297" xlink:href="#DejaVuSans-108"/>
     <use x="1824.1875" xlink:href="#DejaVuSans-101"/>
     <use x="1885.710938" xlink:href="#DejaVuSans-100"/>
     <use x="1949.1875" xlink:href="#DejaVuSans-32"/>
     <use x="1980.974609" xlink:href="#DejaVuSans-80"/>
     <use x="2041.214844" xlink:href="#DejaVuSans-97"/>
     <use x="2102.494141" xlink:href="#DejaVuSans-114"/>
     <use x="2143.607422" xlink:href="#DejaVuSans-97"/>
     <use x="2204.886719" xlink:href="#DejaVuSans-109"/>
     <use x="2302.298828" xlink:href="#DejaVuSans-101"/>
     <use x="2363.822266" xlink:href="#DejaVuSans-116"/>
     <use x="2403.03125" xlink:href="#DejaVuSans-101"/>
     <use x="2464.554688" xlink:href="#DejaVuSans-114"/>
     <use x="2505.667969" xlink:href="#DejaVuSans-115"/>
    </g>
   </g>
  </g>
 </g>
 <defs>
  <clipPath id="pe3aa0ed537">
   <rect height="290.84" width="290.84" x="84.98" y="26.88"/>
  </clipPath>
 </defs>
</svg>
